<?xml version="1.0" encoding="UTF-8" standalone="no"?>
<!-- Created with Inkscape (http://www.inkscape.org/) -->

<svg
   version="1.1"
   id="svg2"
   width="1024"
   height="1024"
   viewBox="200 200 824 824"
   sodipodi:docname="hw4cis512.svg"
   inkscape:export-filename="Untitled design.png"
   inkscape:export-xdpi="96"
   inkscape:export-ydpi="96"
   inkscape:version="1.2.2 (732a01da63, 2022-12-09)"
   xmlns:inkscape="http://www.inkscape.org/namespaces/inkscape"
   xmlns:sodipodi="http://sodipodi.sourceforge.net/DTD/sodipodi-0.dtd"
   xmlns="http://www.w3.org/2000/svg"
   xmlns:svg="http://www.w3.org/2000/svg">
  <defs
     id="defs6" />
  <sodipodi:namedview
     id="namedview4"
     pagecolor="#ffffff"
     bordercolor="#000000"
     borderopacity="0.25"
     inkscape:showpageshadow="2"
     inkscape:pageopacity="0"
     inkscape:pagecheckerboard="true"
     inkscape:deskcolor="#d1d1d1"
     showgrid="false"
     inkscape:zoom="1.0029297"
     inkscape:cx="382.37975"
     inkscape:cy="497.54236"
     inkscape:window-width="2560"
     inkscape:window-height="1369"
     inkscape:window-x="-8"
     inkscape:window-y="-8"
     inkscape:window-maximized="1"
     inkscape:current-layer="g8" />
  <g
     inkscape:groupmode="layer"
     inkscape:label="Image"
     id="g8">
    <path
       style="fill:#129ed4;fill-opacity:1"
       d="m 294.81898,817.06758 c -5.34795,-2.42805 -7.31632,-6.19031 -7.31632,-13.98413 0,-13.9429 11.45294,-34.41819 26.32197,-47.05781 15.98651,-13.58954 46.10448,-31.62633 68.66801,-41.12332 5.21949,-2.19688 15.34449,-5.78445 22.5,-7.97237 15.58976,-4.76684 21.06624,-6.48259 65.01002,-20.36729 32.91872,-10.40117 50.44931,-15.85243 74.5,-23.16631 19.66572,-5.9804 69.07715,-21.43316 78,-24.39346 12.75034,-4.23012 42.6821,-13.39433 58.5,-17.91095 16.57872,-4.73386 23.11648,-7.30403 38.52389,-15.14476 14.02805,-7.13879 25.32951,-15.3029 33.97611,-24.54415 8.06532,-8.62 21.27462,-26.17856 25.01678,-33.25375 l 2.80656,-5.30628 1.21817,5.83398 c 2.02942,9.71907 0.11508,30.96893 -4.12903,45.83398 -3.59514,12.59196 -14.48207,28.86571 -28.21703,42.17871 -24.07489,23.33525 -43.57706,33.08569 -98.69545,49.34444 -9.625,2.83917 -28.525,8.69506 -42,13.01309 -13.475,4.31803 -28.55,8.97669 -33.5,10.3526 -4.95,1.3759 -16.63597,5.00128 -25.96881,8.0564 -9.33285,3.05512 -17.45492,5.55476 -18.04904,5.55476 -0.59413,0 -7.35816,2.04431 -15.03119,4.54291 -7.67303,2.4986 -21.15096,6.76426 -29.95096,9.47925 -27.29969,8.42253 -70.38497,22.50142 -84,27.4485 -7.15,2.59799 -16.5237,5.80062 -20.83044,7.11696 -15.74847,4.81346 -43.42735,18.28145 -59.05852,28.73668 -3.23893,2.16642 -9.18328,7.25472 -13.20966,11.30733 -4.02639,4.0526 -8.12636,7.35849 -9.11104,7.34641 -0.98469,-0.0121 -3.673,-0.87672 -5.97402,-1.92142 z M 316.42364,691.5291 c -23.09389,-3.89056 -36.06624,-11.85902 -47.11274,-28.93973 -8.08786,-12.50589 -13.85776,-40.72862 -11.75322,-57.48932 1.44319,-11.49363 1.66931,-11.47072 9.82121,0.99507 4.00095,6.1182 9.15305,13.17601 11.44911,15.68402 6.22542,6.80011 15.22093,13.04405 21.36588,14.83043 13.0083,3.78162 36.78586,3.48882 53.06036,-0.65338 4.26163,-1.08467 19.44842,-5.60925 33.74842,-10.05463 14.3,-4.44537 32.525,-10.09666 40.5,-12.55841 7.975,-2.46175 31.15,-9.79808 51.5,-16.30295 20.35,-6.50488 45.55,-14.37053 56,-17.47923 10.45,-3.1087 34.075,-10.52769 52.5,-16.48665 18.425,-5.95896 45.65,-14.51817 60.5,-19.02047 66.50393,-20.16298 79.43161,-26.00132 99.98945,-45.15676 5.81066,-5.41427 11.72128,-12.65947 26.32867,-32.27349 3.10583,-4.17035 7.15446,-12.12091 7.29688,-14.3294 0.37878,-5.87355 1.77602,8.20794 1.80756,18.21676 0.12036,38.18888 -13.01943,66.68446 -41.12082,89.17658 -11.70406,9.36782 -27.61878,19.41963 -37.6075,23.75304 -9.34213,4.05291 -36.73901,13.06462 -71.69424,23.58253 -9.35,2.81338 -21.5,6.62526 -27,8.47083 -5.5,1.84558 -16.3,5.21679 -24,7.49158 -7.7,2.27479 -19.625,5.88302 -26.5,8.01828 -6.875,2.13527 -18.575,5.75311 -26,8.03964 -7.425,2.28653 -19.35,6.10928 -26.5,8.49499 -14.29392,4.76938 -33.55786,10.72769 -40.36456,12.48469 -2.4005,0.61964 -13.6505,4.20002 -25,7.9564 -18.67134,6.1797 -51.94971,16.48422 -66.17246,20.49003 -6.49215,1.82851 -31.6098,4.53822 -40.96298,4.41913 -3.575,-0.0455 -9.91056,-0.65733 -14.07902,-1.35958 z m -0.77525,-86.05179 c -11.0764,-1.72936 -17.30159,-3.81819 -25.14573,-8.43753 -16.86696,-9.93278 -27.57845,-24.64659 -31.68849,-43.52882 -1.28373,-5.89768 -1.75056,-12.73023 -1.77642,-26 -0.0402,-20.60022 0.91178,-25.53086 7.50377,-38.86631 5.81689,-11.76743 12.43611,-20.15946 24.47521,-31.03036 12.14759,-10.96886 11.21496,-10.8609 21.03244,-2.43469 2.77559,2.38225 6.15059,5.11035 7.5,6.06245 l 2.45349,1.73109 -3.5,3.09069 c -4.61639,4.07652 -15.7256,10.64379 -19.5,11.52753 -4.31525,1.01037 -12.07636,6.94343 -15.39704,11.77043 -4.22166,6.13665 -6.10296,12.69919 -6.10296,21.28889 0,6.1375 0.48767,8.54338 2.57734,12.71505 7.73528,15.44221 19.90991,25.10426 34.92789,27.71953 4.30424,0.74955 12.48494,0.98959 22.38866,0.65694 18.17768,-0.61056 15.11879,0.1867 75.60611,-19.70567 39.8931,-13.11957 51.4784,-16.78237 76,-24.02806 7.7,-2.27521 18.5,-5.63632 24,-7.46913 5.5,-1.83281 18.1,-5.66789 28,-8.5224 9.9,-2.85452 28.35,-8.49439 41,-12.53306 40.39736,-12.89735 91.88495,-28.72139 102.5,-31.50203 12.57067,-3.29293 33.3459,-13.71578 46.26666,-23.2118 7.58441,-5.57411 18.62379,-17.13385 22.32908,-23.38163 3.5078,-5.91475 8.27333,-20.64312 9.01193,-27.85232 1.31804,-12.86483 -3.51542,-28.01274 -12.51255,-39.21394 -4.19293,-5.22009 -19.69831,-17.19919 -30.68259,-23.70467 -11.19772,-6.63188 -35.02147,-14.71551 -55.23293,-18.74108 -5.87378,-1.16989 -11.89384,-2.74274 -13.37791,-3.49521 -3.58636,-1.81841 -7.62714,-7.24749 -8.44765,-11.35004 l -0.66256,-3.31278 11.40426,0.57918 c 42.57302,2.16213 78.06209,16.7629 104.12649,42.83931 18.58741,18.59596 23.83342,29.08072 26.45536,52.87409 1.81719,16.49046 1.22096,32.50945 -1.61538,43.40083 -2.69001,10.32948 -10.72781,27.87078 -16.43723,35.87182 -14.97544,20.9862 -47.1074,42.59069 -77.62498,52.19253 -6.325,1.99006 -18.25,5.8166 -26.5,8.50343 -8.25,2.68684 -19.95,6.2989 -26,8.0268 -6.05,1.72791 -22.7,6.91423 -37,11.52515 -14.3,4.61092 -36.8,11.81574 -50,16.0107 -30.49386,9.69095 -74.38549,23.78759 -99.5,31.95633 -18.46008,6.00432 -54.54498,17.16146 -76.5,23.65314 -19.11539,5.65206 -36.82945,7.06178 -54.35427,4.32562 z m 37.50624,-92.12191 c -0.92256,-15.07803 -0.729,-58.41984 0.30063,-67.31752 0.70558,-6.0973 1.31447,-7.84624 3.30742,-9.5 1.34346,-1.11481 5.75841,-4.72692 9.811,-8.02692 4.0526,-3.3 10.64856,-8.83252 14.65769,-12.2945 l 7.28934,-6.2945 -0.25903,51.78526 -0.25902,51.78525 -12.34334,3.25374 c -6.78883,1.78955 -14.38353,4.15621 -16.87711,5.25924 -2.49358,1.10303 -4.6332,2.00551 -4.7547,2.00551 -0.12151,0 -0.5143,-4.795 -0.87288,-10.65556 z m 127.84803,-62.70623 c -6.63035,-3.05706 -10.5,-10.19868 -10.5,-19.37825 0,-4.95866 0.43201,-6.32838 2.96532,-9.40172 4.35211,-5.27987 8.1204,-6.6704 18.9155,-6.98 l 9.38081,-0.26904 2.86919,3.21118 c 2.81504,3.15058 2.86918,3.43362 2.86918,14.99923 v 11.78806 l -3.55505,3.44616 c -3.39889,3.29479 -3.91502,3.45762 -11.75,3.70688 -5.37314,0.17094 -9.22796,-0.21558 -11.19495,-1.1225 z m 52.8897,-0.0143 c -6.62481,-3.00308 -8.0394,-5.7618 -8.77302,-17.1091 -1.06194,-16.42553 0.92984,-18.51481 17.65077,-18.51481 h 10.45887 l 4.63684,4.95716 c 4.61399,4.93273 4.63684,4.99211 4.63684,12.04966 0,9.20904 -2.72269,14.29006 -9.53075,17.78606 -3.6369,1.86758 -15.63966,2.3904 -19.07955,0.83107 z m 109.41589,-15.70718 c -0.19164,-0.57491 -0.0333,-4.50388 0.35184,-8.73103 0.38515,-4.22716 0.73229,-10.54427 0.77142,-14.03803 l 0.0711,-6.3523 10.25,10.3523 c 5.6375,5.69376 10.025,10.61987 9.75,10.94692 -0.275,0.32705 -3.425,1.63837 -7,2.91403 -3.575,1.27567 -8.15284,3.13706 -10.17299,4.13641 -2.2731,1.12449 -3.80578,1.41861 -4.02142,0.7717 z m -320.47919,-7.90938 c -12.41795,-2.60932 -16.47114,-10.087 -12.93957,-23.87207 2.17834,-8.50288 5.58044,-13.0714 18.28397,-24.55272 5.95606,-5.38303 26.36941,-25.15375 45.36301,-43.93494 18.99359,-18.78119 41.26859,-40.67824 49.5,-48.66011 8.2314,-7.98186 28.91619,-28.24925 45.96619,-45.03864 34.05395,-33.53342 37.22586,-35.94887 47.20724,-35.94887 9.47172,0 12.63349,2.2801 38.79276,27.97525 13.2,12.96581 35.46424,34.58807 49.47608,48.04947 14.01184,13.46141 33.82556,32.80028 44.03049,42.97528 10.20492,10.175 28.18056,27.725 39.94586,39 32.86167,31.49222 36.30021,38.58946 24.44157,50.4481 -9.12517,9.12518 -18.29504,13.29112 -22.98352,10.44161 -4.15399,-2.52466 -24.44819,-21.01324 -44.8326,-40.84373 -28.83762,-28.05399 -43.92974,-42.51777 -71.52375,-68.54598 -13.411,-12.65 -31.41464,-29.8625 -40.00809,-38.25 -8.59345,-8.3875 -16.00648,-15.25 -16.47341,-15.25 -1.27652,0 -20.14696,17.56949 -62.83168,58.5 -10.89787,10.45 -24.93547,23.725 -31.19466,29.5 -6.25919,5.775 -19.43423,18.15 -29.27787,27.5 -26.1976,24.88385 -48.33103,45.17188 -52.5749,48.19144 -4.14502,2.94923 -11.14977,3.83246 -18.36712,2.31591 z m 158.06656,-31.93998 c -3.21648,-1.36954 -8.31448,-8.09445 -9.52154,-12.5601 -0.59358,-2.19601 -0.87077,-6.16221 -0.61599,-8.81379 0.37647,-3.91799 1.18547,-5.56068 4.31893,-8.76963 4.38142,-4.48698 8.4037,-5.91027 16.7253,-5.91827 6.47129,-0.006 10.50112,1.6544 13.61204,5.6093 1.83408,2.33166 2.0877,4.00792 2.08333,13.76998 -0.005,10.22674 -0.19669,11.35492 -2.40376,14.11514 -2.34436,2.93192 -2.62224,3.00527 -12.24503,3.23226 -5.41543,0.12774 -10.79441,-0.17146 -11.95328,-0.66489 z m 49.92086,-1.0176 c -4.69963,-2.86557 -5.31382,-4.81518 -5.31382,-16.86767 v -10.94938 l 4.00288,-3.61636 c 3.84275,-3.47169 4.3002,-3.61636 11.4349,-3.61636 8.94346,0 11.91903,1.00854 16.71156,5.66419 4.43131,4.30476 6.3707,10.38223 5.39321,16.90067 -0.92021,6.13635 -7.26356,12.79817 -13.10495,13.76285 -7.82125,1.29165 -15.78202,0.75968 -19.12378,-1.27794 z M 299.19226,312.13587 c -12.1143,-0.59095 -12.91753,-0.76075 -14.78198,-3.12491 -2.4314,-3.08305 -1.92338,-8.42829 1.0873,-11.44022 1.95202,-1.95282 3.60234,-2.09626 31.782,-2.76228 33.92699,-0.80185 36.44648,-0.49389 38.95245,4.76117 2.00896,4.21283 1.03639,7.79473 -2.91521,10.73653 -2.43977,1.81631 -4.4554,2.02035 -22,2.22706 -10.62279,0.12515 -25.07884,-0.0537 -32.12456,-0.39735 z m 76.9667,-23.25744 c -2.2457,-1.3054 -4.6563,-6.79476 -4.6563,-10.60322 0,-3.8887 4.03802,-9.38296 8.6389,-11.75434 2.1236,-1.09455 4.21083,-2.53896 4.63829,-3.20979 0.42745,-0.67083 2.45245,-1.57529 4.5,-2.00991 6.2468,-1.32596 -11.09025,-2.23388 -55.00977,-2.8808 -38.75593,-0.57086 -39.8129,-0.63919 -43,-2.7795 -4.69368,-3.15206 -5.07498,-8.4762 -0.90564,-12.64554 l 2.98437,-2.98437 h 55.45193 c 30.49855,0 56.8932,0.28826 58.65476,0.64057 5.00357,1.00071 10.04716,6.34478 10.04716,10.64572 0,1.95257 -0.2719,4.2587 -0.60423,5.12473 -0.83739,2.1822 -36.05834,33.59609 -37.62554,33.55857 -0.69863,-0.0167 -2.09989,-0.51268 -3.11393,-1.10212 z m -130.9063,-2.94757 c -2.48256,-1.44596 -2.20099,-5.57979 0.5,-7.34057 3.33564,-2.17449 37.56522,-3.48183 38.83066,-1.48307 1.28795,2.03433 1.11799,7.30509 -0.28066,8.70374 -1.52468,1.52468 -36.45401,1.63193 -39.05,0.1199 z m -2.11364,-31.55626 c -3.50387,-3.50388 -3.41628,-7.24225 0.25206,-10.75674 5.92756,-5.67896 15.86447,-3.85302 19.73192,3.62582 3.06156,5.92039 -1.48,9.76728 -11.53103,9.76728 -4.95125,0 -6.20879,-0.39221 -8.45295,-2.63636 z"
       id="path475"
       sodipodi:nodetypes="sssssssssssscsssssssssssssssssssssssssssssssssssssssssssssssssssssscssssssssssssssssssssscsssssssssssssssssscccsssssssscsscsssssscsssssssscsssssssssssssssssssssssssssssssscscssssscsssssssssssssssssssssscssssssssssssssss" />
    <path
       style="fill:#000000;stroke:#000000;stroke-width:0.0997079"
       d="m 1217.4333,216.86465 v -512 h 499.5365 c 443.3678,0 499.5365,0.16817 499.5365,1.49562 0,0.82259 -0.4487,1.49562 -0.997,1.49562 -0.5484,0 -0.9971,0.43747 -0.9971,0.97215 0,0.5484 1.3039,0.71138 2.9912,0.37391 2.3418,-0.46837 2.9912,-0.2465 2.9912,1.022 0,0.89114 -0.4752,1.62026 -1.0559,1.62026 -0.5808,0 -0.7741,0.456 -0.4296,1.01334 0.3444,0.55734 1.0439,0.7552 1.5544,0.43969 0.5105,-0.3155 0.9282,0.29577 0.9282,1.35839 0,1.23438 1.1547,2.41033 3.1978,3.25659 3.4488,1.42854 6.773,4.30742 6.773,5.86564 0,0.53118 -0.7119,0.69261 -1.582,0.35872 -1.1316,-0.43425 -1.5247,-0.0706 -1.3808,1.27764 0.1107,1.03659 0.1427,2.55774 0.071,3.38033 -0.1156,1.32944 -0.2374,1.32944 -1.0966,0 -0.8186,-1.26671 -0.9689,-1.21828 -0.9818,0.31646 -0.011,1.35608 -0.5171,1.65281 -2.0094,1.17916 -2.3455,-0.74443 -2.7671,1.57731 -0.6677,3.67672 0.7296,0.72956 1.1343,1.9029 0.8995,2.60741 -0.3034,0.91033 0.278,1.104 2.0096,0.6694 2.1787,-0.54683 2.4458,-0.28576 2.5241,2.46715 0.048,1.69328 -0.3314,2.81979 -0.8434,2.50336 -1.529,-0.94493 -1.0528,1.19117 0.5647,2.5336 1.9372,1.60774 1.91,2.99124 -0.059,2.99124 -0.855,0 -1.2877,0.43154 -0.9618,0.95898 0.3743,0.60572 1.4993,0.61425 3.0541,0.0232 3.3251,-1.26421 9.6564,1.71294 9.0436,4.25252 -0.2316,0.95969 -0.012,1.74489 0.4883,1.74489 0.5155,0 0.6261,2.26778 0.2554,5.23466 -0.3598,2.87907 -0.5146,5.68335 -0.3441,6.23175 0.1706,0.54839 0.465,217.375654 0.6544,481.83835 l 0.3443,480.84129 h -512.006 -512.0056 z m 337.4427,281.96834 c 8.2249,-9.51232 12.4374,-13.43173 13.6384,-12.68946 0.7031,0.43451 0.9355,0.31782 0.5641,-0.28319 -1.0845,-1.75468 20.899,-14.22913 26.1539,-14.84097 4.2432,-0.49406 8.0601,-2.20242 8.7112,-3.89891 0.8674,-2.26047 12.6174,-7.67351 14.8211,-6.82787 1.1749,0.45085 1.5827,0.31991 1.1557,-0.37104 -0.426,-0.68933 0.6107,-1.03176 2.9252,-0.96615 2.3536,0.0667 3.8967,-0.45526 4.4923,-1.51958 1.1644,-2.08066 7.2419,-4.09913 9.85,-3.27136 1.203,0.38183 2.0098,0.18705 2.0098,-0.48523 0,-0.61771 0.4598,-0.83894 1.0218,-0.49162 0.5619,0.34732 0.8984,0.0881 0.7478,-0.57593 -0.3007,-1.32488 4.9697,-3.19355 6.9428,-2.46166 0.679,0.25182 1.1276,-0.073 0.9971,-0.72171 -0.1305,-0.64876 1.5575,-1.67411 3.751,-2.27856 2.1936,-0.60445 4.6614,-1.36604 5.484,-1.69242 7.0263,-2.78777 11.0043,-3.84652 12.0423,-3.205 0.8252,0.50999 0.9729,0.34637 0.4505,-0.49895 -0.5891,-0.95322 -0.053,-1.09877 2.2122,-0.60115 2.2725,0.49912 3.1417,0.26017 3.6238,-0.99621 0.4577,-1.1928 1.3274,-1.47887 3.1246,-1.02781 1.5641,0.39258 2.395,0.22213 2.2341,-0.45833 -0.3193,-1.35033 7.8867,-4.28438 9.8623,-3.52626 0.9204,0.3532 1.1931,0.13887 0.7453,-0.58572 -0.4892,-0.79146 0.019,-0.95302 1.6536,-0.52559 2.7785,0.72659 10.914,-1.11784 10.914,-2.47437 0,-0.51566 0.4016,-0.68931 0.8926,-0.3859 0.4909,0.30341 1.1695,-0.17004 1.508,-1.0521 0.4131,-1.07653 1.4209,-1.44978 3.0655,-1.1354 1.3476,0.25761 2.242,0.13153 1.9875,-0.28018 -0.6272,-1.01482 2.4429,-2.1182 3.7118,-1.334 1.2992,0.80299 12.7645,-2.63586 12.7645,-3.82855 0,-0.49393 0.4526,-0.6183 1.0059,-0.27636 1.2307,0.7606 23.9673,-6.602 23.3704,-7.56782 -0.7211,-1.16678 17.8159,-6.89623 20.2429,-6.25674 1.3896,0.36612 2.2435,0.14494 2.2435,-0.58112 0,-0.64471 0.4199,-0.91266 0.9332,-0.59545 1.3031,0.80534 9.4277,-1.13099 9.8318,-2.34319 0.1824,-0.54729 0.9757,-0.74795 1.7629,-0.44588 0.7871,0.30205 1.4312,0.0666 1.4312,-0.52327 0,-0.58985 0.673,-0.81419 1.4956,-0.49854 0.8226,0.31567 1.4956,0.11924 1.4956,-0.43648 0,-0.55572 0.8305,-0.79323 1.8455,-0.52779 1.0151,0.26543 2.532,-0.20389 3.3711,-1.04295 0.8391,-0.83906 1.8033,-1.2478 2.1428,-0.90831 0.3395,0.33947 0.6172,0.0458 0.6172,-0.6527 0,-0.74198 0.648,-1.0213 1.5586,-0.67187 1.7914,0.68745 14.3947,-3.13532 14.3947,-4.36615 0,-0.4495 0.8974,-0.58261 1.9942,-0.29579 1.0968,0.28682 1.9941,0.0954 1.9941,-0.42525 0,-0.5207 1.0096,-0.86402 2.2434,-0.76293 3.0738,0.25185 4.8538,-0.51719 4.0832,-1.76405 -0.4182,-0.67662 0.2781,-0.8072 1.9999,-0.37506 1.5217,0.38193 2.6414,0.2455 2.6414,-0.32183 0,-0.54163 0.673,-0.72652 1.4956,-0.41086 0.8226,0.31566 1.4956,0.0913 1.4956,-0.49854 0,-0.59064 0.7454,-0.78642 1.6592,-0.43577 1.2003,0.46059 1.4349,0.27382 0.8484,-0.67525 -0.6247,-1.0107 -0.2043,-1.15972 1.8306,-0.64899 1.6337,0.41003 2.6414,0.25287 2.6414,-0.41196 0,-0.59121 0.4487,-0.79762 0.9971,-0.45869 0.5484,0.33892 0.997,0.11458 0.997,-0.49854 0,-0.61313 0.4547,-0.8338 1.0103,-0.4904 1.3614,0.84139 23.9167,-6.32135 23.9167,-7.59508 0,-0.55325 0.4395,-0.73432 0.9766,-0.40237 1.2729,0.78673 8.9942,-1.5283 8.9942,-2.69669 0,-0.49396 0.4784,-0.60245 1.063,-0.24111 1.5401,0.95184 21.9247,-5.62628 21.1782,-6.83421 -0.374,-0.60508 0.2277,-0.77779 1.5264,-0.43817 2.3146,0.60528 15.4147,-2.92136 15.9307,-4.28869 0.1725,-0.45713 0.9577,-0.58401 1.7449,-0.28194 0.7871,0.30205 1.4312,0.0666 1.4312,-0.52327 0,-0.59064 0.7454,-0.78642 1.6592,-0.43577 1.2062,0.46288 1.4359,0.27537 0.8411,-0.68689 -0.6136,-0.99283 -0.2807,-1.18309 1.3321,-0.76133 1.1825,0.30923 2.1501,0.12909 2.1501,-0.40033 0,-0.52942 0.4103,-0.70895 0.9119,-0.39898 0.5015,0.30998 1.0873,0.0373 1.3017,-0.60587 0.2144,-0.64321 1.8231,-1.16947 3.575,-1.16947 1.7518,0 3.1851,-0.35982 3.1851,-0.79961 0,-0.43978 0.673,-0.54134 1.4956,-0.22568 0.8226,0.31566 1.4956,0.0507 1.4956,-0.58868 0,-0.63943 0.4487,-0.8853 0.9971,-0.54637 0.5484,0.33893 0.9971,0.19972 0.9971,-0.30936 0,-1.20515 11.8621,-6.35289 13.0077,-5.64489 1.171,0.72373 10.9222,-4.26496 10.9222,-5.58779 0,-0.57153 0.4486,-0.76183 0.997,-0.42291 0.5484,0.33893 0.9971,0.21585 0.9971,-0.27351 0,-0.48936 0.5747,-0.88975 1.2771,-0.88975 1.8186,0 6.6995,-3.35243 6.6995,-4.60153 0,-0.57672 0.2859,-0.76271 0.6353,-0.41332 0.3494,0.3494 2.032,-0.32711 3.7391,-1.50333 5.4982,-3.78848 13.6855,-10.98446 13.1298,-11.54014 -0.2966,-0.29664 3.3899,-4.61816 8.1923,-9.60338 21.0838,-21.88655 29.8726,-44.50974 28.9899,-74.62282 -0.197,-6.71735 -0.7361,-12.80307 -1.1981,-13.52382 -0.5958,-0.92948 -1.6472,0.21567 -3.6166,3.9392 -5.6142,10.61463 -25.2946,35.24345 -27.2618,34.1166 -0.645,-0.36942 -0.84,-0.30451 -0.4335,0.14425 1.0113,1.1163 -1.2096,3.62717 -2.5018,2.82852 -0.5952,-0.36782 -0.7408,-0.16045 -0.3413,0.48595 1.0832,1.75271 -15.3657,13.35075 -28.307,19.95901 -15.0473,7.68372 -24.1594,11.18544 -42.8744,16.47628 -8.5001,2.40304 -25.1014,7.41381 -36.8919,11.13505 -11.7904,3.72124 -24.8023,7.77584 -28.9153,9.01023 -4.1129,1.23438 -16.0031,4.99533 -26.4226,8.35767 -10.4194,3.36234 -22.5339,7.1606 -26.9211,8.44059 -4.3871,1.27998 -17.8477,5.37835 -29.9123,9.10747 -12.0647,3.72912 -22.9424,6.74937 -24.1726,6.71167 -1.2303,-0.0377 -2.024,0.27577 -1.7639,0.69661 0.6597,1.06749 -11.2108,4.27646 -12.6132,3.40972 -0.6451,-0.3987 -0.873,-0.26948 -0.5231,0.29664 0.7722,1.24944 -6.8789,3.64635 -8.5583,2.68111 -0.6742,-0.38751 -0.8736,-0.31779 -0.4431,0.15495 0.8511,0.93454 -13.9965,5.71285 -15.2823,4.91821 -0.4316,-0.26678 -0.9353,-0.10369 -1.1192,0.36242 -0.4551,1.15309 -26.815,9.69427 -29.0005,9.39678 -0.9597,-0.13064 -1.7449,0.23612 -1.7449,0.815 0,0.61944 -0.8719,0.77578 -2.119,0.37996 -1.5701,-0.49834 -1.9152,-0.34273 -1.332,0.60079 0.547,0.88518 0.3182,1.09346 -0.7508,0.68328 -0.8457,-0.32453 -1.9288,-0.23159 -2.407,0.20653 -1.642,1.50468 -11.2943,4.17805 -12.4673,3.45307 -0.6925,-0.42797 -0.9089,-0.29699 -0.5279,0.31948 0.7231,1.16991 -3.8764,2.65004 -5.3688,1.7277 -0.5232,-0.32335 -0.9512,-0.0647 -0.9512,0.5747 0,0.63943 -0.6731,0.90434 -1.4956,0.58868 -0.8226,-0.31566 -1.4957,-0.18925 -1.4957,0.2809 0,0.47015 -1.4582,1.13944 -3.2405,1.48731 -1.7823,0.34786 -8.1464,2.6167 -14.1424,5.04187 -5.9961,2.42517 -11.3375,4.14025 -11.8698,3.81128 -0.5784,-0.35752 -0.6394,-0.0669 -0.1516,0.72247 0.5976,0.96687 0.3579,1.14472 -0.8948,0.66401 -1.153,-0.44246 -1.4782,-0.27989 -0.9971,0.49854 0.4811,0.77844 0.156,0.941 -0.997,0.49854 -1.1531,-0.44246 -1.4782,-0.27989 -0.9971,0.49854 0.4811,0.77844 0.1559,0.941 -0.9971,0.49854 -1.153,-0.44247 -1.4782,-0.27989 -0.9971,0.49854 0.4811,0.77844 0.156,0.941 -0.9971,0.49854 -1.0163,-0.38999 -1.4636,-0.25637 -1.1018,0.32909 0.6032,0.97598 -0.7466,1.39416 -3.3476,1.03711 -0.7405,-0.10165 -1.0505,0.29387 -0.689,0.87895 0.3616,0.58507 0.2757,1.06376 -0.191,1.06376 -1.5326,0 -18.5049,10.00895 -29.1816,17.209 -10.7603,7.25649 -28.1024,21.09258 -27.8527,22.22184 0.077,0.34894 -1.2306,2.18286 -2.9062,4.07537 -1.6755,1.89253 -3.0537,3.65455 -3.0628,3.9156 -0.01,0.26106 -1.1246,2.37331 -2.4792,4.6939 -3.5412,6.06665 -8.5676,19.05712 -8.5676,22.14234 0,1.50258 -0.4285,2.36992 -0.9971,2.01849 -0.6022,-0.37216 -0.9971,0.98673 -0.9971,3.43092 0,2.22594 0.3467,4.04717 0.7704,4.04717 0.4236,0 1.6557,1.6441 2.7379,3.65355 2.4075,4.47048 6.8206,7.30562 11.3794,7.31059 2.8396,0.003 4.1109,-0.79389 7.4781,-4.68811 z m 45.3735,-122.07497 c 5.9229,-0.67349 9.7376,-1.52754 9.3833,-2.10077 -0.372,-0.60193 0.6712,-0.69398 2.7683,-0.24429 1.8509,0.3969 3.0123,0.35371 2.581,-0.096 -1.0219,-1.06536 14.2081,-5.50022 16.4882,-4.80124 0.9597,0.2942 1.7449,0.0701 1.7449,-0.49807 0,-0.56814 0.673,-0.77471 1.4956,-0.45906 0.8226,0.31567 1.4956,0.11924 1.4956,-0.43648 0,-0.55572 0.8974,-0.77574 1.9942,-0.48892 1.0968,0.28682 1.9941,0.0346 1.9941,-0.56059 0,-0.59515 0.6731,-0.82382 1.4957,-0.50816 0.8226,0.31566 1.4956,0.0913 1.4956,-0.49854 0,-0.58985 0.673,-0.8142 1.4956,-0.49854 0.8226,0.31566 1.4956,0.0913 1.4956,-0.49854 0,-0.58985 0.5771,-0.85102 1.2824,-0.58038 1.9843,0.76145 21.8771,-5.46886 23.1886,-7.26255 0.6808,-0.93095 1.8461,-1.33129 2.8045,-0.9635 0.9019,0.34611 1.6398,0.20876 1.6398,-0.30522 0,-0.51397 0.7466,-0.64798 1.6592,-0.29781 1.2062,0.46289 1.4359,0.27538 0.8412,-0.68688 -0.6137,-0.99295 -0.2806,-1.18305 1.3334,-0.76097 1.1833,0.30943 1.9296,0.20363 1.6584,-0.23512 -0.6544,-1.05881 4.2622,-2.25897 5.6756,-1.38545 0.6684,0.41312 0.8241,0.22814 0.3938,-0.46802 -0.6529,-1.0564 1.1763,-1.56313 5.1287,-1.42079 0.6796,0.0244 0.9492,-0.41896 0.5991,-0.98542 -0.412,-0.66676 0.2949,-0.79616 2.0049,-0.36697 1.5218,0.38193 2.6414,0.2455 2.6414,-0.32183 0,-0.54163 0.6152,-0.74871 1.3671,-0.46019 0.7519,0.28852 1.9858,-0.0621 2.742,-0.77911 0.7562,-0.71703 2.7166,-1.40293 4.3565,-1.52422 1.6399,-0.1213 3.1272,-0.65695 3.305,-1.19033 0.1778,-0.5334 1.0409,-0.69442 1.918,-0.35784 1.1407,0.43775 1.3639,0.23848 0.7839,-0.69996 -0.6246,-1.0107 -0.2043,-1.15973 1.8306,-0.64899 1.4528,0.36462 2.6414,0.24772 2.6414,-0.25978 0,-0.50751 0.8974,-0.68807 1.9942,-0.40125 1.0968,0.28682 1.9942,0.0346 1.9942,-0.56058 0,-0.59515 0.673,-0.82382 1.4956,-0.50817 0.8226,0.31567 1.4956,0.0913 1.4956,-0.49853 0,-0.58986 0.673,-0.8142 1.4956,-0.49854 0.8226,0.31566 1.4956,0.11924 1.4956,-0.43649 0,-0.55572 0.8974,-0.77574 1.9942,-0.48892 1.0968,0.28682 1.9941,0.0346 1.9941,-0.56059 0,-0.59515 0.6731,-0.82382 1.4957,-0.50816 0.8226,0.31566 1.4956,0.0507 1.4956,-0.58868 0,-0.63942 0.4487,-0.88529 0.9971,-0.54637 0.5484,0.33893 0.997,0.21209 0.997,-0.28187 0,-1.24892 7.7643,-3.45683 9.1483,-2.60148 0.6219,0.38432 0.8609,0.26225 0.5311,-0.27126 -0.7654,-1.23846 5.8782,-3.68865 7.4192,-2.73624 0.7685,0.47493 0.8855,0.27575 0.3485,-0.59317 -0.6023,-0.97448 -0.2601,-1.16477 1.3415,-0.74594 1.1826,0.30924 2.1501,0.1291 2.1501,-0.40032 0,-0.52942 0.4487,-0.68527 0.9971,-0.34635 0.5484,0.33893 0.9971,0.0887 0.9971,-0.55598 0,-0.68132 0.8351,-0.95383 1.9941,-0.65073 1.0968,0.28682 1.9942,0.0625 1.9942,-0.49854 0,-0.56102 0.898,-0.7852 1.9955,-0.49818 1.2446,0.32545 1.7514,0.12688 1.3469,-0.52767 -0.4291,-0.6943 0.2736,-0.81804 2.0763,-0.36559 1.5265,0.38312 2.4833,0.29293 2.1756,-0.20507 -0.7116,-1.15128 7.0482,-3.4908 8.5335,-2.57283 0.7416,0.45836 0.8525,0.24867 0.3221,-0.60943 -0.6023,-0.9746 -0.2599,-1.16472 1.343,-0.74558 1.1832,0.30944 1.9411,0.22239 1.6841,-0.19343 -0.7077,-1.14521 6.6549,-3.066 9.2006,-2.40028 1.2985,0.33959 2.2318,0.13117 2.2318,-0.49843 0,-0.60435 0.7704,-0.80566 1.7449,-0.45597 0.9597,0.34436 1.3969,0.244 0.9715,-0.22302 -0.9156,-1.00532 11.1746,-5.63334 12.9876,-4.97153 0.6855,0.25022 1.2464,-0.0283 1.2464,-0.61892 0,-0.64758 0.9895,-0.82553 2.4927,-0.44826 1.3709,0.3441 2.4926,0.21041 2.4926,-0.2971 0,-0.5075 0.8974,-0.68806 1.9942,-0.40124 1.0968,0.28682 1.9952,0.13264 1.9964,-0.34262 10e-4,-0.47526 1.4396,-0.91654 3.1963,-0.98063 1.7567,-0.0641 3.3551,-0.59976 3.5519,-1.19035 0.1969,-0.59058 1.002,-0.82665 1.7892,-0.52458 0.7871,0.30205 1.4312,0.026 1.4312,-0.6134 0,-0.63943 0.4574,-0.87988 1.0165,-0.53433 1.5368,0.9498 8.0845,-1.49201 7.3196,-2.72966 -0.4262,-0.68967 0.2688,-0.88451 1.985,-0.55645 1.4525,0.27766 2.6409,0.13245 2.6409,-0.32269 0,-0.45513 0.673,-0.56925 1.4956,-0.25359 0.8226,0.31566 1.4956,0.0913 1.4956,-0.49854 0,-0.59064 0.7454,-0.78642 1.6592,-0.43578 1.2062,0.46289 1.4359,0.27538 0.8412,-0.68688 -0.6137,-0.99295 -0.2806,-1.18305 1.3334,-0.76097 1.1833,0.30943 1.9,0.15577 1.5927,-0.34148 -0.556,-0.89962 1.4664,-1.35266 4.7936,-1.07383 0.9597,0.0805 1.7449,-0.28309 1.7449,-0.8078 0,-0.52472 0.7466,-0.66752 1.6591,-0.31735 1.0586,0.4062 1.4164,0.24376 0.9884,-0.4487 -0.7641,-1.23645 4.6862,-2.75973 6.3018,-1.76123 0.5618,0.3472 1.0214,0.12962 1.0214,-0.4835 0,-0.61312 0.4487,-0.83747 0.9971,-0.49854 0.5484,0.33893 0.9971,0.11083 0.9971,-0.50688 0,-0.66937 0.8057,-0.86741 1.9942,-0.4902 1.1182,0.3549 1.9941,0.17918 1.9941,-0.40006 0,-0.56813 0.7467,-0.74646 1.6592,-0.39629 1.2063,0.46289 1.4359,0.27538 0.8412,-0.68688 -0.6137,-0.99295 -0.2806,-1.18305 1.3334,-0.76097 1.3786,0.36051 1.9159,0.18144 1.4956,-0.49854 -0.4242,-0.68644 0.1383,-0.85351 1.5929,-0.47312 1.2368,0.32344 1.9636,0.30294 1.6151,-0.0456 -0.8409,-0.84084 14.5237,-5.30687 16.1921,-4.70658 0.714,0.25687 1.0739,0.10427 0.7999,-0.33912 -0.6407,-1.03676 13.0344,-5.47032 14.3552,-4.65404 0.5476,0.33844 0.9957,0.18459 0.9957,-0.34189 0,-0.52648 1.6521,-0.91041 3.6714,-0.85316 2.0193,0.0572 3.8431,-0.41065 4.0527,-1.03976 0.2098,-0.62911 1.0254,-0.89668 1.8125,-0.59462 0.7872,0.30206 1.4312,0.026 1.4312,-0.6134 0,-0.63943 0.4104,-0.90898 0.9119,-0.599 0.5016,0.30998 1.0874,0.0373 1.3018,-0.60588 0.2144,-0.64321 1.8034,-1.16946 3.5311,-1.16946 1.8209,0 2.8846,-0.41526 2.5306,-0.98797 -0.3662,-0.5926 0.2498,-0.76296 1.5395,-0.4257 1.1825,0.30923 2.1501,0.12909 2.1501,-0.40033 0,-0.52942 0.4487,-0.68527 0.997,-0.34634 0.5484,0.33892 0.9971,0.11082 0.9971,-0.50689 0,-0.66937 0.8057,-0.86741 1.9942,-0.49019 1.1182,0.3549 1.9941,0.17917 1.9941,-0.40006 0,-0.56814 0.6731,-0.77471 1.4957,-0.45906 0.8226,0.31567 1.4956,0.0913 1.4956,-0.49854 0,-0.58985 0.6692,-0.81564 1.4872,-0.50176 0.8606,0.33026 1.755,-0.12716 2.1228,-1.08567 0.3513,-0.91541 1.2703,-1.41284 2.0544,-1.11196 0.7803,0.29944 1.1736,0.1479 0.8741,-0.33675 -0.7005,-1.1335 2.2816,-2.29985 3.6763,-1.43786 0.5836,0.36071 0.7816,0.20344 0.4398,-0.34949 -0.7717,-1.2487 4.0526,-3.56265 5.5274,-2.65118 0.592,0.3659 0.801,0.21963 0.4644,-0.32504 -0.7045,-1.13985 6.659,-5.59238 7.6348,-4.61661 0.3552,0.35518 0.6458,0.0958 0.6458,-0.57633 0,-0.67216 0.4598,-0.93793 1.0217,-0.59061 0.562,0.34732 0.8985,0.0373 0.7478,-0.68896 -0.1515,-0.73031 0.5011,-1.25937 1.4602,-1.18376 0.9538,0.0752 1.522,-0.20659 1.2627,-0.62614 -0.711,-1.15048 7.3736,-6.17037 8.6586,-5.37624 0.6269,0.38749 0.8404,0.24371 0.4871,-0.32802 -0.7756,-1.25485 2.479,-4.3298 4.9696,-4.69534 1.0078,-0.14792 1.8335,-0.89919 1.835,-1.6695 9e-4,-0.77031 0.7185,-1.40759 1.5936,-1.41617 2.2644,-0.0222 9.0323,-5.40124 8.2956,-6.59323 -0.8415,-1.3615 2.568,-4.96462 3.9513,-4.17566 0.6122,0.34918 0.7942,0.28152 0.4046,-0.15036 -0.3897,-0.43189 1.257,-3.3396 3.6593,-6.46158 14.5919,-18.96326 21.3708,-40.63009 21.7592,-69.54711 0.2419,-18.00816 -0.7231,-21.60451 -3.7032,-13.80133 -1.0247,2.68321 -2.1696,4.27004 -2.7998,3.88053 -0.601,-0.37143 -0.7781,-0.1926 -0.4057,0.40981 0.3633,0.58783 -4.6807,8.17264 -11.2088,16.85513 -21.4956,28.58945 -38.9725,40.75558 -75.4306,52.50936 -38.5327,12.42257 -59.5962,18.70942 -60.9472,18.19096 -0.8985,-0.34477 -1.1731,-0.12785 -0.7351,0.58075 0.4951,0.80113 -0.1436,0.91959 -2.1896,0.40607 -1.5888,-0.39875 -2.5404,-0.3767 -2.1147,0.049 1.2461,1.24611 -77.4216,26.76437 -79.7522,25.87004 -0.7668,-0.29428 -1.1758,-0.18161 -0.9089,0.25037 0.267,0.432 -8.3469,3.42542 -19.142,6.65207 -10.795,3.22663 -29.4984,9.1082 -41.5631,13.07012 -21.3877,7.02355 -49.4352,15.84632 -83.7546,26.34636 -9.3227,2.85228 -20.3155,6.28784 -24.4285,7.63458 -14.21,4.65293 -25.0899,7.22395 -28.2679,6.67998 -2.4971,-0.42741 -2.8338,-0.30404 -1.6444,0.60249 1.1814,0.90049 0.6231,1.07135 -2.6581,0.8134 -2.2846,-0.17959 -3.9406,0.0182 -3.6802,0.43962 0.2604,0.42139 -5.4981,0.75837 -12.7966,0.74885 -13.5944,-0.0177 -23.9291,-1.55088 -30.0575,-4.45902 -9.2701,-4.39892 -20.2676,-16.26393 -30.9391,-33.37944 -2.3169,-3.71593 -4.2171,-5.8206 -4.7626,-5.27507 -0.4992,0.49923 -1.1826,3.22893 -1.5186,6.06601 -0.336,2.83707 -0.9971,5.15831 -1.4691,5.15831 -0.472,0 -0.8228,3.25297 -0.7795,7.22882 0.043,3.97585 0.3474,6.55579 0.6758,5.7332 0.3284,-0.82259 1.4212,3.66427 2.4284,9.97079 2.3889,14.95881 5.9781,25.55757 11.3858,33.62174 2.4066,3.58901 4.3758,6.89857 4.3758,7.35458 0,0.45601 1.568,1.89459 3.4844,3.19687 1.9165,1.30226 3.1504,2.73643 2.742,3.18703 -0.4084,0.45061 -0.2314,0.52725 0.3933,0.17033 0.6248,-0.35692 2.9973,1.15752 5.2725,3.36544 2.2921,2.22443 4.6329,3.70757 5.2499,3.32627 0.6331,-0.39129 0.8366,-0.24029 0.4718,0.35004 -0.7853,1.27063 1.3849,3.19123 4.2238,3.73795 1.1548,0.22239 2.5723,0.69645 3.1499,1.05346 0.5777,0.35703 2.0343,0.78403 3.2368,0.9489 1.2026,0.16489 4.5794,0.84077 7.504,1.50197 2.9246,0.6612 6.3884,0.99747 7.6972,0.74728 1.3088,-0.25019 2.1424,-0.071 1.8524,0.39815 -0.7641,1.23643 21.7461,1.04666 33.4291,-0.28183 z m -40.8181,-84.41718 c 0,-0.4402 2.5799,-0.47806 5.7332,-0.0842 9.0109,1.1257 21.4042,1.04411 20.6748,-0.13611 -0.4159,-0.67288 0.805,-0.791 3.5836,-0.34668 3.1101,0.49731 4.0246,0.36668 3.4898,-0.49854 -0.5329,-0.86226 0.35,-1.00062 3.3371,-0.52296 2.4511,0.39195 4.0617,0.25841 4.0617,-0.33675 0,-0.54243 1.1217,-0.77182 2.4927,-0.50974 1.371,0.26208 2.494,0.0877 2.4956,-0.38753 0,-0.47523 1.6592,-0.90135 3.6836,-0.94694 2.0244,-0.0456 3.8393,-0.55881 4.0332,-1.1405 0.1939,-0.58168 1.2284,-0.82857 2.2989,-0.54863 1.0705,0.27994 1.9463,0.0499 1.9463,-0.51104 0,-0.56102 0.8974,-0.78536 1.9942,-0.49854 1.0968,0.28682 1.9945,0.13264 1.9949,-0.34262 3e-4,-0.47526 1.1923,-0.93317 2.6487,-1.01761 1.4564,-0.0844 3.0699,-0.90737 3.5856,-1.82876 0.65,-1.16158 1.6722,-1.49084 3.3337,-1.07384 1.3187,0.33099 2.3962,0.1586 2.3962,-0.38337 0,-0.54163 0.673,-0.72652 1.4956,-0.41087 0.8226,0.31567 1.4956,0.0913 1.4956,-0.49854 0,-0.58985 0.6731,-0.81419 1.4956,-0.49854 0.8226,0.31567 1.4957,0.11925 1.4957,-0.43648 0,-0.55572 0.8973,-0.77574 1.9941,-0.48892 1.0968,0.28682 1.9942,0.0346 1.9942,-0.56059 0,-0.59515 0.673,-0.82382 1.4956,-0.50816 0.8226,0.31566 1.4966,0.1894 1.4979,-0.28056 10e-4,-0.46997 1.2351,-0.89969 2.742,-0.95491 3.4849,-0.12775 23.5741,-6.36502 23.992,-7.44899 0.1725,-0.44756 0.9577,-0.56659 1.7449,-0.26453 0.7871,0.30206 1.4312,0.0666 1.4312,-0.52326 0,-0.58985 0.673,-0.8142 1.4956,-0.49854 0.8226,0.31566 1.4956,0.0507 1.4956,-0.58868 0,-0.63942 0.3747,-0.93105 0.8326,-0.64805 1.1023,0.68127 8.1411,-1.50359 8.1411,-2.52702 0,-0.43917 0.6731,-0.54022 1.4957,-0.22457 0.8225,0.31567 1.4956,0.0913 1.4956,-0.49854 0,-0.58985 0.673,-0.81419 1.4956,-0.49854 0.8226,0.31567 1.4956,0.11924 1.4956,-0.43648 0,-0.55572 0.8305,-0.79323 1.8455,-0.52779 1.0151,0.26543 2.4773,-0.14914 3.2494,-0.92128 0.7722,-0.77214 1.9608,-1.21827 2.6414,-0.99141 0.6806,0.22687 1.2374,-0.10007 1.2374,-0.72653 0,-0.62646 0.4575,-0.85629 1.0166,-0.51074 1.2397,0.76617 7.9571,-1.33482 7.9571,-2.48872 0,-0.45453 0.8974,-0.59175 1.9942,-0.30493 1.0968,0.28682 1.9941,0.0625 1.9941,-0.49854 0,-0.56101 0.8305,-0.80285 1.8456,-0.5374 1.015,0.26543 2.4772,-0.14915 3.2494,-0.92128 0.7721,-0.77214 1.9607,-1.21827 2.6413,-0.99141 0.6806,0.22687 1.2375,-0.10008 1.2375,-0.72653 0,-0.62647 0.4587,-0.85548 1.0194,-0.50894 1.3329,0.82374 10.9455,-2.37529 10.9455,-3.6426 0,-0.53669 0.4378,-0.70524 0.9728,-0.37457 1.2185,0.75305 20.9629,-5.4333 20.9629,-6.56813 0,-0.45781 0.6731,-0.57411 1.4956,-0.25845 0.8226,0.31566 1.4957,0.13945 1.4957,-0.39156 0,-0.53102 1.0509,-0.7646 2.3353,-0.51906 1.3107,0.25054 3.0085,-0.22678 3.8696,-1.08788 0.8439,-0.84385 1.7751,-1.29352 2.0693,-0.99925 0.7282,0.72821 14.6586,-3.81744 14.6586,-4.78327 0,-0.42324 0.673,-0.51126 1.4956,-0.1956 0.8226,0.31566 1.4956,0.0507 1.4956,-0.58868 0,-0.63942 0.4527,-0.88281 1.006,-0.54085 1.5109,0.93374 5.1042,-0.48777 4.3437,-1.71834 -0.4428,-0.7165 0.2121,-0.85139 1.9797,-0.40775 1.7448,0.4379 2.6414,0.26163 2.6414,-0.5193 0,-0.65025 0.2922,-0.89012 0.6492,-0.53304 0.3571,0.35707 1.1806,-0.0775 1.8301,-0.9657 0.6495,-0.8882 2.5567,-1.66643 4.2382,-1.72939 1.6815,-0.063 2.8069,-0.52167 2.5008,-1.01934 -0.306,-0.49768 0.4117,-0.6517 1.595,-0.34226 1.1833,0.30944 1.9144,0.17907 1.6247,-0.28972 -0.2897,-0.46878 1.3594,-0.77712 3.6647,-0.68519 2.3359,0.0931 4.3553,-0.32431 4.5615,-0.94299 0.2036,-0.61057 1.2459,-0.88109 2.3164,-0.60115 1.1154,0.29167 1.9464,0.009 1.9464,-0.66323 0,-0.64471 0.4785,-0.87646 1.0634,-0.51498 0.5849,0.36148 1.6417,-0.13363 2.3485,-1.10024 0.7753,-1.0603 1.9356,-1.50785 2.9249,-1.12822 0.9019,0.34609 1.6398,0.23665 1.6398,-0.24319 0,-0.47984 0.8974,-0.63778 1.9942,-0.35096 1.159,0.30311 1.9941,0.0306 1.9941,-0.65073 0,-0.64471 0.4596,-0.88817 1.0213,-0.54101 1.2357,0.7637 16.9261,-4.32314 16.9261,-5.48744 0,-0.45201 0.8305,-0.60468 1.8456,-0.33923 1.015,0.26543 2.532,-0.2039 3.371,-1.04295 0.8391,-0.83906 1.7597,-1.29148 2.0458,-1.00539 0.6376,0.63762 8.69,-1.69463 8.6932,-2.51785 10e-4,-0.32449 1.3947,-0.64015 3.0965,-0.70147 1.7018,-0.0613 3.3834,-0.51002 3.7368,-0.99708 0.3534,-0.48707 1.9842,-0.98482 3.6242,-1.10612 1.6399,-0.12129 3.1364,-0.68494 3.3256,-1.25256 0.1892,-0.56762 0.7452,-0.78411 1.2354,-0.48111 1.1151,0.68913 8.9091,-1.58295 8.9091,-2.59713 0,-0.41025 0.8305,-0.52873 1.8455,-0.26329 1.015,0.26543 2.532,-0.20389 3.3711,-1.04294 0.839,-0.83907 1.7769,-1.2742 2.0841,-0.96698 0.7023,0.70226 19.9993,-5.75425 20.4534,-6.84344 0.1839,-0.44115 0.7356,-0.55417 1.2258,-0.25117 1.1549,0.71374 8.9091,-1.60075 8.9091,-2.65918 0,-0.44437 0.673,-0.5497 1.4956,-0.23404 0.8226,0.31566 1.4956,0.0913 1.4956,-0.49854 0,-0.58985 0.6731,-0.81419 1.4957,-0.49854 0.8225,0.31567 1.4956,0.0913 1.4956,-0.49854 0,-0.58985 0.673,-0.81419 1.4956,-0.49854 0.8226,0.31567 1.4956,0.0913 1.4956,-0.49854 0,-0.58985 0.673,-0.81419 1.4956,-0.49854 0.8226,0.31567 1.4956,0.0507 1.4956,-0.58867 0,-0.63943 0.4487,-0.8853 0.9971,-0.54637 0.5484,0.33893 0.9971,0.15514 0.9971,-0.40841 0,-0.56354 0.7466,-0.73811 1.6592,-0.38794 1.0814,0.41498 1.4189,0.24789 0.9691,-0.4798 -0.8513,-1.37757 2.9772,-3.56873 4.9277,-2.82024 0.7797,0.29921 1.4177,0.083 1.4177,-0.4806 0,-0.56355 0.4487,-0.74733 0.9971,-0.40841 0.5484,0.33893 0.9971,0.11459 0.9971,-0.49854 0,-0.61312 0.4487,-0.83746 0.997,-0.49853 0.5484,0.33892 0.9971,0.11458 0.9971,-0.49854 0,-0.61313 0.4487,-0.83747 0.9971,-0.49854 0.5484,0.33892 0.9971,0.11458 0.9971,-0.49854 0,-0.61313 0.3365,-0.90835 0.7478,-0.65606 1.0427,0.63962 9.1322,-3.60805 9.1944,-4.82788 0.028,-0.54839 0.6067,-1.02365 1.2861,-1.05612 2.847,-0.1361 5.722,-1.67267 5.722,-3.05822 0,-0.81801 0.4487,-1.20998 0.9971,-0.87105 0.5484,0.33893 0.9971,0.14107 0.9971,-0.43969 0,-0.58076 0.5404,-0.94376 1.201,-0.80666 0.6606,0.1371 1.2226,-0.42376 1.2489,-1.24635 0.026,-0.82259 0.7198,-1.53898 1.541,-1.59198 2.8442,-0.1836 4.8544,-1.57074 4.3146,-2.97739 -0.2982,-0.7772 -0.046,-1.46919 0.5615,-1.53774 3.1577,-0.35656 3.5792,-0.55238 3.3791,-1.56994 -0.2753,-1.39963 2.0634,-3.37236 4.4054,-3.71609 0.9869,-0.14485 1.7944,-0.89362 1.7944,-1.66394 0,-0.77031 0.5609,-1.40056 1.2464,-1.40056 0.6855,0 1.3056,-0.44869 1.3781,-0.99708 0.073,-0.54839 2.0479,-3.12834 4.3899,-5.73321 5.909,-6.57232 10.9365,-14.37885 15.1005,-23.44783 9.4776,-20.641506 11.8003,-33.569736 10.1628,-56.567736 -2.084,-29.2692 -7.3387,-40.80986 -27.9821,-61.45640967 -20.4856,-20.48875033 -48.0305,-33.72893033 -81.578,-39.21264033 -15.3297,-2.50581 -31.0861,-3.64894 -32.3999,-2.35065 -3.1027,3.06599 8.0201,16.88621 12.8345,15.94702 1.2714,-0.24803 1.6222,0.0261 1.1047,0.86346 -0.5609,0.90756 0.095,1.10171 2.5185,0.74596 4.1483,-0.60885 9.0606,0.39825 26.286,5.38909 23.5133,6.81262 33.6501,11.7913303 51.5959,25.3413203 16.854,12.7255697 24.2091,25.0669897 25.4948,42.7787097 0.7093,9.77194 -1.7751,20.76003 -7.2893,32.23953 -2.987,6.21819 -5.5843,9.55201 -14.0142,17.98814 -5.6912,5.695416 -10.5852,10.117696 -10.8756,9.827266 -0.2905,-0.29043 -1.6264,0.57023 -2.9687,1.91257 -1.3424,1.34234 -2.8856,2.16565 -3.4294,1.82956 -0.5438,-0.33608 -0.9887,-0.16733 -0.9887,0.37502 0,1.1317 -14.632,9.43475 -16.6263,9.43475 -0.7266,0 -1.3211,0.31921 -1.3211,0.70933 0,0.78283 -11.5796,5.37926 -13.9591,5.54097 -4.4886,0.30505 -5.0486,0.48502 -4.4622,1.43394 0.4156,0.67246 -0.2647,0.80973 -1.9353,0.39045 -1.5758,-0.39551 -2.5762,-0.22959 -2.5762,0.42728 0,0.59197 -0.7446,0.78816 -1.6592,0.43719 -1.0046,-0.3855 -1.4109,-0.23488 -1.0297,0.38179 0.7703,1.24643 -6.8617,3.68612 -8.4536,2.7023 -0.6218,-0.38433 -0.8593,-0.25984 -0.5277,0.27662 0.757,1.2249 -8.7672,3.74855 -10.3815,2.75082 -0.8014,-0.49526 -0.9256,-0.3083 -0.3807,0.57323 0.5996,0.97029 0.2655,1.16619 -1.2938,0.75844 -1.1562,-0.30237 -2.2359,-0.22958 -2.3993,0.16175 -0.1634,0.39134 -5.6813,2.38645 -12.2621,4.43359 -6.5807,2.04715 -17.7978,5.53779 -24.9269,7.75699 -7.1291,2.2192 -17.4489,5.50989 -22.9328,7.31264 -17.2902,5.68385 -38.7145,12.3552 -43.373,13.506 -2.4677,0.60961 -7.852,2.1589 -11.9649,3.44285 -18.7606,5.85655 -37.6391,11.6619 -51.8481,15.94383 -16.9411,5.10525 -53.5997,16.8385 -86.2473,27.60494 -30.4004,10.02537 -47.453,15.00412 -49.53,14.46098 -1.0023,-0.2621 -1.5976,-0.11288 -1.3229,0.33162 0.9516,1.53963 -20.6011,2.32619 -30.8964,1.12758 -12.0093,-1.39816 -19.5151,-4.60508 -27.3499,-11.68549 -5.864,-5.29939 -12.5083,-14.8104 -12.2999,-17.60664 0.072,-0.95969 -0.3172,-1.74489 -0.8639,-1.74489 -0.5467,0 -0.7167,-0.44868 -0.3777,-0.99707 0.3389,-0.5484 0.2532,-0.99765 -0.1905,-0.99835 -0.4436,-6.9e-4 -0.8066,-3.77188 -0.8066,-8.38041 0,-4.60853 0.3846,-8.14125 0.8546,-7.8505 0.4701,0.29075 0.5528,-0.42233 0.1839,-1.58463 -0.9364,-2.95051 3.7334,-11.18528 9.2012,-16.22535 4.6511,-4.28716 16.5256,-10.29375 18.7003,-9.45927 1.3365,0.5129 9.3462,-4.09525 13.0751,-7.52251 2.1135,-1.94249 2.1988,-5.80956 0.1282,-5.80956 -0.5484,0 -0.7973,-1.04479 -0.5532,-2.32175 0.3803,-1.98936 0.1055,-2.25707 -1.9193,-1.87001 -1.5531,0.2969 -2.2635,0.0233 -2.0725,-0.79812 0.1599,-0.68743 -0.7226,-1.34161 -1.961,-1.45375 -1.2385,-0.11213 -3.2576,-1.09313 -4.4869,-2.17998 -1.2293,-1.08685 -3.4171,-2.70827 -4.8617,-3.60316 l -2.6265,-1.62705 -10.4628,9.36193 c -14.8847,13.31861 -23.8041,26.06266 -29.3128,41.88239 -2.6662,7.65638 -2.7788,8.75724 -2.8044,27.41967 -0.029,21.19091 1.3321,30.56255 5.8833,40.50362 2.7555,6.01866 9.353,15.97882 12.3912,18.70656 1.1505,1.03297 1.8088,2.33619 1.4628,2.89603 -0.346,0.55983 -0.1971,0.75091 0.3308,0.42461 0.528,-0.32629 2.065,0.38958 3.4155,1.59083 1.3506,1.20125 2.02,1.84758 1.4875,1.43628 -0.5325,-0.41129 -1.3877,-0.74781 -1.9003,-0.74781 -0.5127,0 0.221,0.90707 1.6304,2.0157 1.4094,1.10863 2.9281,1.95287 3.3749,1.87608 1.6918,-0.29073 2.8823,0.20338 5.2993,2.19939 1.371,1.13218 1.8197,1.76196 0.9971,1.39951 -0.8226,-0.36245 -0.6247,0.0473 0.4398,0.91055 1.0645,0.86326 2.3249,1.56956 2.8009,1.56956 0.4759,0 0.6356,0.37173 0.3548,0.82606 -0.2808,0.45433 1.0052,0.77577 2.8579,0.7143 1.8526,-0.0614 3.1646,0.21793 2.9156,0.62091 -0.2491,0.40297 1.3708,1.27906 3.5998,1.94687 2.8964,0.86777 3.6869,1.47528 2.7707,2.1293 -0.8797,0.62798 -0.5779,0.76083 0.9616,0.42342 1.2339,-0.27043 2.2434,-0.0851 2.2434,0.41204 0,0.49706 0.4487,0.90373 0.9971,0.90373 0.5484,0 0.9971,-0.36015 0.9971,-0.80034 z M 1536,281.17624 c -0.3389,-0.5484 -1.1506,-0.99021 -1.8037,-0.98182 -0.7136,0.009 -0.5906,0.40106 0.3081,0.98182 1.9155,1.2379 2.2607,1.2379 1.4956,0 z m 63.6805,-73.03603 c -0.5088,-0.84688 -0.2081,-0.80774 0.9382,0.12208 0.9279,0.75265 1.687,0.97699 1.687,0.49854 0,-0.47844 1.0096,-0.92472 2.2435,-0.99173 3.8761,-0.21053 14.6971,-4.57122 14.0284,-5.65325 -0.3899,-0.63095 0.1902,-0.80544 1.521,-0.45743 1.1833,0.30943 1.9567,0.24738 1.7185,-0.1379 -0.2381,-0.38527 2.6278,-1.48894 6.3686,-2.45261 l 6.8016,-1.75212 0.7318,-25.37414 c 0.4026,-13.95578 0.4012,-37.28017 -0,-51.83197 l -0.7349,-26.457816 -5.1354,4.7729 c -9.9954,9.289686 -27.9205,23.467066 -29.2438,23.129626 -1.7215,-0.43901 -2.172,9.20861 -2.2271,47.69974 -0.04,27.61741 0.2718,40.13243 0.9984,40.13243 0.5808,0 0.719,-0.56086 0.3072,-1.24635 z m 141.0932,-72.73499 c 13.3756,-0.43083 13.8069,-0.92743 14.0175,-16.14119 0.089,-6.41346 0.4361,-12.42773 0.7719,-13.36506 0.3358,-0.93733 0.2415,-1.36933 -0.2095,-0.96 -0.451,0.40932 -1.6667,-0.64811 -2.7016,-2.34987 -1.0349,-1.70175 -2.7514,-3.321556 -3.8145,-3.599546 -1.0631,-0.27801 -1.6871,-0.90314 -1.3867,-1.38918 0.3004,-0.48605 -0.4042,-0.88372 -1.5657,-0.88372 -1.1615,0 -1.8345,0.44868 -1.4956,0.99707 0.3902,0.63136 -2.1665,0.99708 -6.9702,0.99708 -8.8356,0 -11.5639,1.13832 -16.9093,7.055076 -3.7601,4.16191 -3.7845,4.24354 -3.2988,11.03135 0.5515,7.70737 3.6273,13.56102 8.7687,16.68766 1.6212,0.98595 2.6128,2.14588 2.2035,2.57763 -0.4094,0.43176 0.1531,0.52823 1.2499,0.21438 1.0968,-0.31385 6.2,-0.7061 11.3404,-0.87168 z m 53.6238,-0.0365 c -0.6608,-0.42048 -0.046,-0.73905 1.4434,-0.74781 3.3796,-0.0198 8.7343,-3.67612 11.5901,-7.91381 1.7717,-2.62904 2.2672,-4.75912 2.2672,-9.7473 0,-7.17142 -1.2872,-10.30155 -6.1467,-14.94726 -3.2709,-3.126976 -3.5055,-3.184386 -14.26,-3.489776 -10.7507,-0.30528 -10.9853,-0.26405 -13.9591,2.453106 -2.9589,2.70345 -3.0371,3.01814 -3.5953,14.45764 -0.3139,6.43173 -0.1751,12.14273 0.3083,12.69112 0.5245,0.59495 0.6237,0.19281 0.2461,-0.99708 -0.5719,-1.80202 -0.5244,-1.82528 0.4934,-0.24137 0.6195,0.96403 0.8444,2.20904 0.4997,2.76667 -0.3446,0.55764 -0.248,0.89059 0.2147,0.73992 1.2537,-0.40834 6.3288,3.83825 5.5353,4.63175 -0.376,0.37597 0.1615,0.35929 1.1944,-0.0371 1.0718,-0.41126 1.6347,-0.32687 1.3112,0.19658 -0.3253,0.52633 2.539,0.91725 6.7208,0.91725 4.0082,0 6.7696,-0.32964 6.1365,-0.73254 z m 98.5043,-16.63151 c 0.3101,-0.50174 4.2118,-2.30528 8.6705,-4.0079 5.8237,-2.22385 9.0189,-2.92451 11.3458,-2.48798 4.1863,0.78536 5.2819,-0.95606 2.7698,-4.40234 -1.0613,-1.45594 -2.2244,-3.4391 -2.5846,-4.40703 -0.6514,-1.75025 -5.5202,-4.227606 -6.4606,-3.28725 -0.8876,0.88764 -4.0628,-3.994036 -3.8882,-5.977886 0.143,-1.62398 -0.3705,-1.88411 -3.1771,-1.60963 -2.1364,0.20894 -3.1153,-0.0485 -2.7056,-0.71144 0.3531,-0.57136 -0.2717,-1.95257 -1.3885,-3.06937 -2.2081,-2.2081 -4.0247,-2.648 -4.0247,-0.97461 0,0.58076 0.5609,0.77183 1.2464,0.4246 0.6855,-0.34723 0.5558,-0.0372 -0.2881,0.68896 -1.1036,0.94951 -1.4296,2.68174 -1.1609,6.16813 0.2607,3.3817 0.038,4.64052 -0.7355,4.16233 -0.7973,-0.49279 -0.984,2.208816 -0.664,9.609796 0.2448,5.66243 0.4811,10.40749 0.5251,10.54459 0.2023,0.63082 2.0154,0.15387 2.5202,-0.66298 z m -310.5376,-7.4804 c 3.2869,-0.23486 5.384,-0.8292 5.2346,-1.48354 -0.1371,-0.60043 0.1995,-1.14777 0.7478,-1.21632 0.5484,-0.0686 1.4084,-0.18072 1.9111,-0.24927 1.3194,-0.17991 2.5723,-1.60231 2.5982,-2.94969 0.012,-0.6398 0.8584,-1.01743 1.8802,-0.83919 1.3074,0.22803 1.6879,-0.119 1.2842,-1.1711 -0.5705,-1.48669 3.9083,-5.344676 5.6118,-4.833936 0.452,0.13554 0.5516,-0.19085 0.2213,-0.72531 -0.7266,-1.17573 2.8844,-3.29283 3.8941,-2.28309 0.392,0.39201 0.5632,0.0601 0.3804,-0.73756 -0.1828,-0.79767 0.1163,-1.53105 0.6647,-1.62975 3.1731,-0.57109 5.4839,-1.80153 5.4839,-2.92006 0,-0.70437 2.7997,-3.68067 6.2214,-6.614 13.6524,-11.70355 21.7764,-19.21405 37.0464,-34.2486 14.0311,-13.8147 18.2095,-17.44888 20.0622,-17.44888 0.8788,0 1.3698,-0.36905 1.091,-0.82012 -0.4989,-0.80723 7.7157,-9.15067 9.0094,-9.15067 1.3793,0 7.333,-5.1403 7.333,-6.33115 0,-0.68435 3.9024,-4.81185 8.672,-9.1722397 4.7696,-4.36037 14.3042,-13.5405 21.1879,-20.4002603 6.8838,-6.85977 17.7072,-17.45487 24.052,-23.54466 10.9093,-10.47088 11.761,-11.07236 15.6788,-11.07236 2.2785,0 3.9324,0.34049 3.6752,0.75664 -0.4656,0.75332 2.3878,2.40457 3.6992,2.14072 0.9512,-0.19138 7.4864,5.75957 17.078,15.55132 4.4455,4.53819 8.655,8.03166 9.3545,7.76323 0.6995,-0.26841 1.165,-0.12358 1.0345,0.32185 -0.2087,0.71202 8.6891,9.7607 27.3365,27.8000603 3.1009,2.99984 6.1244,5.1536697 6.7188,4.7862897 0.6716,-0.41505 0.856,-0.0821 0.487,0.87944 -0.3266,0.85108 -0.1273,1.54741 0.4428,1.54741 0.5701,0 1.3072,0.85276 1.638,1.89504 0.3308,1.04227 1.7071,2.17252 3.0584,2.51169 1.3514,0.33916 2.457,1.28114 2.457,2.09328 0,0.81214 0.4967,1.47662 1.1038,1.47662 0.607,0 0.8876,0.56322 0.6234,1.2516 -0.5746,1.4974 1.1756,3.23526 3.2582,3.23526 0.876,0 1.4247,0.80432 1.3244,1.94131 -0.2039,2.31202 2.4864,4.54523 4.5306,3.7608 0.9345,-0.35859 1.1948,-0.14145 0.7308,0.60946 -0.4271,0.69098 -0.1163,1.16652 0.7625,1.16652 0.8159,0 3.1485,1.5704 5.1837,3.48977 2.0351,1.91938 4.0861,3.54587 4.5578,3.61442 0.4717,0.0686 1.2689,0.18072 1.7716,0.24927 0.5027,0.0686 1.2879,0.53308 1.7449,1.0323 0.4828,0.52735 0.3087,0.60713 -0.4154,0.19042 -1.3717,-0.78937 -1.63,0.27581 -0.4833,1.99315 0.9551,1.43037 5.4749,3.88378 6.5707,3.56662 1.3912,-0.40267 3.6656,1.95668 2.9705,3.08143 -0.3529,0.57098 -0.1888,0.75832 0.3646,0.41629 0.5534,-0.34203 2.047,0.48601 3.3191,1.8401 1.2721,1.35408 1.9321,2.46196 1.4667,2.46196 -0.4654,0 0.1947,1.10789 1.4668,2.46197 1.2721,1.35408 2.6311,2.26528 3.0201,2.02489 0.389,-0.2404 1.782,0.76939 3.0956,2.24398 1.8003,2.02098 1.8974,2.32028 0.3942,1.21562 -1.842,-1.35358 -1.8904,-1.33309 -0.6349,0.26847 0.7477,0.95364 1.6972,1.52509 2.1102,1.26986 0.413,-0.25523 1.596,0.49986 2.629,1.67799 1.2276,1.40011 1.3601,1.85933 0.3825,1.32583 -1.2415,-0.67757 -1.2754,-0.57966 -0.1994,0.57642 0.7129,0.76593 1.8346,1.40269 2.4927,1.41499 0.6581,0.0123 1.0507,0.85843 0.8724,1.88027 -0.2246,1.28764 0.1228,1.68641 1.1319,1.2992 1.6861,-0.64702 7.0913,4.51996 5.9364,5.67482 -0.4189,0.41897 -0.089,0.61221 0.7339,0.4294 0.828,-0.184 1.3733,0.25707 1.2216,0.98811 -0.1506,0.72625 0.1076,1.08464 0.574,0.79641 1.2528,-0.77426 10.2668,7.38816 9.5104,8.61193 -0.3554,0.57515 -0.2258,0.78586 0.2881,0.46826 0.5139,-0.3176 3.6413,1.96868 6.9498,5.08061 3.3084,3.11193 4.8397,4.64852 3.4027,3.41463 -1.437,-1.23388 -3.0269,-2.24342 -3.5331,-2.24342 -0.5063,0 0.8517,1.45823 3.0178,3.2405 2.166,1.782276 4.3207,3.117216 4.7881,2.966526 0.4675,-0.15068 0.588,0.1499 0.2678,0.66798 -0.7958,1.28764 4.2258,5.10273 5.8806,4.46771 0.7322,-0.28094 1.6274,-0.0315 1.9894,0.55425 2.0347,3.29228 11.5808,-0.29329 20.0779,-7.54142 2.7939,-2.383186 5.3018,-4.111026 5.5732,-3.839646 0.2713,0.27137 1.3118,-0.41097 2.3121,-1.51631 2.6354,-2.91207 2.0604,-9.15577 -1.5545,-16.88073 -3.4766,-7.42931 -9.5722,-13.62226 -96.6608,-98.20431 -10.6936,-10.3859 -34.6038,-33.72051 -53.1337,-51.8547 -36.7163,-35.932104 -41.218,-39.452264 -50.4538,-39.452264 -9.2358,0 -13.0884,2.94318 -44.9772,34.360494 -16.1776,15.93839 -36.3496,35.70359 -44.8267,43.92265 -8.4771,8.21905 -31.5844,30.9164203 -51.3496,50.43859 -19.7652,19.52216 -38.8531,38.12751 -42.4177,41.34522 -3.5645,3.2177 -8.4775,7.66021 -10.9177,9.87224 -2.4402,2.21203 -3.7998,3.12449 -3.0214,2.02771 1.054,-1.48502 0.7154,-1.36995 -1.3259,0.45068 -1.5076,1.34466 -2.5232,3.01286 -2.2568,3.70711 0.2664,0.69425 -0.014,1.57031 -0.6232,1.9468 -0.6707,0.41452 -0.8269,0.23046 -0.3961,-0.4666 0.3913,-0.63313 0.4764,-1.15114 0.1891,-1.15114 -0.2873,0 -1.0315,0.95151 -1.6539,2.11449 -0.912,1.70408 -0.8705,1.98002 0.2141,1.42167 0.7403,-0.38104 0.5439,-0.0369 -0.4364,0.76471 -0.9802,0.80164 -1.6827,1.84446 -1.561,2.31737 0.1217,0.47292 -0.3531,3.49331 -1.0551,6.71198 -1.5046,6.89883 -0.7555,13.471066 1.9236,16.876986 1.051,1.33615 1.5891,2.78571 1.1958,3.22127 -0.3934,0.43555 -0.2013,0.49822 0.4267,0.13925 0.628,-0.35897 1.417,0.0643 1.7533,0.94067 0.3597,0.93735 1.245,1.3502 2.1504,1.00277 0.8465,-0.32481 1.2859,-0.18098 0.9765,0.31963 -0.805,1.30247 2.2408,1.88862 7.4385,1.43153 2.4678,-0.21701 6.9546,-0.5709 9.9708,-0.78642 z M 1895.131,82.570584 c -0.3183,-0.7954 -0.5546,-0.55914 -0.6024,0.6024 -0.043,1.05109 0.1923,1.63999 0.5237,1.30867 0.3313,-0.33132 0.3667,-1.19131 0.079,-1.91107 z m -143.5434,-4.10353 c 1.217,-1.09002 1.9737,-2.3685 1.6817,-2.84104 -0.2921,-0.47256 0.058,-1.08442 0.7785,-1.35969 1.0195,-0.38963 1.1991,-3.12589 0.811,-12.35283 -0.5418,-12.88157 -1.2435,-14.57728 -7.3359,-17.72775 -2.9503,-1.52569 -18.5466,-1.68256 -19.5946,-0.19708 -0.2794,0.39599 -1.1431,0.86813 -1.9193,1.0492 -1.986,0.46331 -6.7762,5.97324 -8.0067,9.20992 -2.371,6.236 0.5458,17.25551 5.8058,21.93401 1.1745,1.04468 2.1354,2.53161 2.1354,3.30429 0,1.14127 2.1982,1.3634 11.7157,1.18385 10.094,-0.19042 12.022,-0.49534 13.9284,-2.20288 z m 44.7037,1.21238 c 0.3684,-0.59616 1.5166,-0.86251 2.5515,-0.59189 1.0349,0.27064 1.8816,0.0589 1.8816,-0.47052 0,-0.52942 0.3976,-0.71686 0.8835,-0.41655 0.4859,0.30031 2.6097,-1.96035 4.7195,-5.02371 3.3423,-4.85279 3.8361,-6.29626 3.8361,-11.21385 0,-6.66845 -2.1417,-10.93007 -7.786,-15.49305 -3.4912,-2.82237 -4.5779,-3.12827 -12.2571,-3.45029 -7.752,-0.32508 -8.7453,-0.14229 -12.4119,2.28415 -2.192,1.45063 -4.3795,3.67385 -4.8611,4.9405 -1.1128,2.92688 -1.6408,22.75512 -0.6486,24.36041 0.4099,0.66323 1.1029,0.9848 1.5402,0.71458 0.4372,-0.2702 1.64,0.47263 2.673,1.65076 1.195,1.36283 1.3341,1.82871 0.3826,1.28071 -1.2896,-0.74267 -1.3071,-0.6289 -0.1272,0.82568 1.098,1.35365 3.1059,1.68701 10.1612,1.68701 5.256,0 9.0622,-0.43599 9.4627,-1.08394 z M 1589.774,-3.1017657 c -0.4748,-0.76824 0.7082,-0.99681 3.8613,-0.74603 4.0511,0.32218 4.8789,0.0116 7.6052,-2.85377 1.6827,-1.76843 3.0594,-4.1471003 3.0594,-5.2859503 0,-3.33301 -2.8825,-7.9621 -5.6018,-8.99596 -2.8655,-1.08947 -30.2809,-1.25107 -50.1056,-0.29536 -15.099,0.72789 -17.6745,1.87596 -18.7019,8.33684 -0.4657,2.92873 -0.089,3.9889803 2.2771,6.4039503 1.5594,1.59177 2.1622,2.55902 1.3396,2.14944 -0.8226,-0.40958 -0.6247,-0.0384 0.4398,0.82488 1.6557,1.34264 5.8806,1.56956 29.2235,1.56956 19.7531,0 27.0989,-0.30583 26.6034,-1.1076 z m 40.9033,-25.7664003 c 1.5514,-1.61926 3.0936,-2.89408 3.4271,-2.83294 1.4978,0.27457 4.7617,-1.84048 7.0658,-4.57868 1.3829,-1.64346 2.29,-3.05759 2.0158,-3.1425 -0.2742,-0.0849 0.1342,-0.91679 0.9075,-1.84862 0.7734,-0.93184 1.9929,-1.46908 2.7101,-1.19388 0.7171,0.27521 1.5736,0.064 1.9033,-0.46943 0.3296,-0.53339 1.017,-0.71166 1.5275,-0.39614 0.5105,0.31551 0.9282,-0.12586 0.9282,-0.98082 0,-0.85495 0.4487,-1.55446 0.9971,-1.55446 0.5484,0 0.9971,-0.69951 0.9971,-1.55447 0,-0.85495 0.3978,-1.30857 0.8841,-1.00805 0.4862,0.30052 1.4385,-0.12169 2.1162,-0.93824 0.6777,-0.81654 0.8957,-1.48464 0.4845,-1.48464 -0.4111,0 1.0546,-1.95515 3.2573,-4.34477 2.2027,-2.38963 4.3161,-5.76181 4.6965,-7.49372 0.943,-4.29323 -1.9173,-9.04399 -6.9795,-11.59286 -3.7997,-1.91315 -5.9455,-1.99416 -52.8175,-1.99416 -26.8712,0 -52.824,0.16903 -57.6727,0.37561 -8.4651,0.36066 -8.8852,0.48948 -10.556,3.23693 -0.9571,1.57372 -2.1091,2.52641 -2.5601,2.11709 -0.451,-0.40933 -0.5242,0.0777 -0.1626,1.08221 0.3616,1.00453 0.6574,2.69119 0.6574,3.74811 0,2.48705 5.0692,7.73432 6.8691,7.11038 0.8311,-0.2881 1.1119,-0.0381 0.7019,0.62522 -0.4973,0.80473 8.2105,0.95622 32.017,0.55698 31.2673,-0.52435 58.1257,0.68956 58.1257,2.6271 0,0.39328 -2.4899,2.59498 -5.5332,4.89267 -6.6614,5.02938 -8.9792,9.25163 -7.9858,14.54703 0.7255,3.86729 5.3111,9.43316 7.7718,9.43316 0.7622,0 2.6551,-1.32485 4.2064,-2.94411 z m -99.3636,-1.24363 c 1.6835,-1.68346 1.4894,-7.34186 -0.3136,-9.14489 -1.5378,-1.53783 -10.0004,-1.53739 -30.241,0.002 -10.0096,0.76106 -14.3098,5.00357 -8.9072,8.78767 1.8072,1.26586 5.5406,1.55216 20.2407,1.55216 12.6897,0 18.3788,-0.35414 19.2211,-1.1965 z m -22.739,-31.35684 c 2.544,-2.14064 3.0173,-3.13233 2.4981,-5.23466 -0.8803,-3.56439 -5.2871,-7.96713 -8.936,-8.92763 -8.2678,-2.17631 -17.5213,4.99002 -14.3786,11.13534 2.1595,4.22252 5.0164,5.62232 11.5226,5.64575 5.2215,0.0188 6.6315,-0.37849 9.2939,-2.6188 z m 730.8644,-169.296274 c 0,-0.24184 -0.4486,-0.717 -0.997,-1.05593 -0.5484,-0.33892 -0.9971,-0.14106 -0.9971,0.4397 0,0.58076 0.4487,1.05592 0.9971,1.05592 0.5484,0 0.997,-0.19786 0.997,-0.43969 z m -8.1547,-3.24356 c 1.092,-1.07923 1.0905,-1.52922 -0.01,-2.62861 -1.3896,-1.38953 -4.19,-1.10592 -3.2999,0.33419 0.6586,1.06571 -6.1119,3.33411 -7.4615,2.49994 -0.5592,-0.34555 -1.0166,-0.18019 -1.0166,0.36746 0,1.07135 6.5116,1.92963 8.9737,1.18281 0.8226,-0.24951 2.0885,-1.03962 2.8131,-1.75579 z m 5.1635,-2.29922 c 0,-0.5484 -0.4487,-0.99708 -0.9971,-0.99708 -0.5484,0 -0.9971,0.44868 -0.9971,0.99708 0,0.54839 0.4487,0.99708 0.9971,0.99708 0.5484,0 0.9971,-0.44869 0.9971,-0.99708 z m -64.0831,-17.55275 c -0.3313,-0.33132 -1.1913,-0.36674 -1.911,-0.0787 -0.7954,0.3183 -0.5592,0.55456 0.6024,0.60241 1.051,0.0433 1.6399,-0.19237 1.3086,-0.52369 z m 48.1146,-4.63226 c 0.01,-0.41129 -0.4334,-0.74781 -0.9818,-0.74781 -0.5484,0 -0.9902,1.00955 -0.9819,2.24343 0.012,1.81412 0.2003,1.95723 0.9819,0.74781 0.5316,-0.82259 0.9734,-1.83213 0.9818,-2.24343 z m -4.8766,-9.02976 c -1.3022,-1.30213 -1.4833,0.14094 -0.3722,2.96574 0.6927,1.7616 0.7315,1.76074 1.0905,-0.0244 0.2048,-1.01794 -0.1185,-2.34156 -0.7183,-2.94138 z m 6.886,2.29948 c 0,-0.54839 -0.4487,-0.99708 -0.9971,-0.99708 -0.5484,0 -0.9971,0.44869 -0.9971,0.99708 0,0.54839 0.4487,0.99708 0.9971,0.99708 0.5484,0 0.9971,-0.44869 0.9971,-0.99708 z m -6.8578,-7.65258 c -1.1755,-2.02129 -1.4592,-1.37433 -0.4971,1.13302 0.342,0.89109 0.8317,1.41013 1.0885,1.15341 0.2567,-0.25671 -0.01,-1.28561 -0.5914,-2.28643 z m -16.075,-12.289 c 0,-0.54839 -0.1979,-0.99708 -0.4397,-0.99708 -0.2418,0 -0.717,0.44869 -1.0559,0.99708 -0.339,0.5484 -0.1411,0.99708 0.4397,0.99708 0.5807,0 1.0559,-0.44868 1.0559,-0.99708 z"
       id="path324" />
  </g>
</svg>
