<?xml version="1.0" encoding="UTF-8" standalone="no"?>
<!-- Created with Inkscape (http://www.inkscape.org/) -->

<svg
   version="1.1"
   id="svg2"
   width="905.37518"
   height="1024"
   viewBox="0 0 905.37518 1024"
   sodipodi:docname="cropped-logo.svg"
   inkscape:export-filename="Untitled design.png"
   inkscape:export-xdpi="96"
   inkscape:export-ydpi="96"
   inkscape:version="1.3.2 (091e20e, 2023-11-25, custom)"
   xmlns:inkscape="http://www.inkscape.org/namespaces/inkscape"
   xmlns:sodipodi="http://sodipodi.sourceforge.net/DTD/sodipodi-0.dtd"
   xmlns="http://www.w3.org/2000/svg"
   xmlns:svg="http://www.w3.org/2000/svg">
  <defs
     id="defs6" />
  <sodipodi:namedview
     id="namedview4"
     pagecolor="#ffffff"
     bordercolor="#000000"
     borderopacity="0.25"
     inkscape:showpageshadow="2"
     inkscape:pageopacity="0"
     inkscape:pagecheckerboard="true"
     inkscape:deskcolor="#d1d1d1"
     showgrid="false"
     inkscape:zoom="1.0029297"
     inkscape:cx="142.58228"
     inkscape:cy="452.17526"
     inkscape:window-width="2560"
     inkscape:window-height="1334"
     inkscape:window-x="-11"
     inkscape:window-y="2149"
     inkscape:window-maximized="1"
     inkscape:current-layer="g8" />
  <g
     inkscape:groupmode="layer"
     inkscape:label="Image"
     id="g8"
     transform="translate(-240.57396,-205.01096)">
    <path
       style="fill:#129ed4;fill-opacity:1;stroke-width:1.66781"
       d="m 331.04446,1225.8064 c -8.91938,-4.0495 -12.20225,-10.3243 -12.20225,-23.3229 0,-23.2542 19.10135,-57.4031 43.9001,-78.4836 26.66249,-22.6649 76.8936,-52.7467 114.52533,-68.5859 8.70513,-3.6641 25.59173,-9.6474 37.52577,-13.2965 26.0008,-7.9502 35.13454,-10.8117 108.4245,-33.9688 54.90224,-17.34724 84.13997,-26.43892 124.252,-38.63708 32.79873,-9.97416 115.2077,-35.7465 130.08934,-40.68371 21.26517,-7.05503 71.18573,-22.3392 97.56699,-29.87207 27.65016,-7.89519 38.55396,-12.18175 64.25056,-25.25862 23.3962,-11.90616 42.2449,-25.52236 56.6658,-40.93503 13.4515,-14.37653 35.4821,-43.66091 41.7233,-55.461 l 4.6808,-8.84988 2.0317,9.72998 c 3.3847,16.20959 0.1919,51.65036 -6.8865,76.44247 -5.996,21.00102 -24.1533,48.14258 -47.0606,70.34614 -40.1525,38.91884 -72.6784,55.18076 -164.60549,82.2973 -16.0527,4.7352 -47.57435,14.5017 -70.04812,21.7033 -22.47377,7.2018 -47.61603,14.9714 -55.8717,17.2663 -8.25567,2.2947 -27.74567,8.3412 -43.3111,13.4365 -15.56543,5.0954 -29.11152,9.2643 -30.1024,9.2643 -0.9909,0 -12.27203,3.4095 -25.0692,7.5767 -12.79717,4.1672 -35.27583,11.2816 -49.95258,15.8096 -45.53074,14.0472 -117.3889,37.5282 -140.09621,45.779 -11.92486,4.3329 -27.55842,9.6744 -34.74126,11.8697 -26.26548,8.028 -72.42866,30.49 -98.4985,47.9274 -5.40194,3.6132 -15.31599,12.0995 -22.03124,18.8585 -6.71526,6.759 -13.55324,12.2726 -15.1955,12.2524 -1.64228,-0.02 -6.12588,-1.4621 -9.96354,-3.2045 z m 36.03251,-209.3746 c -38.51627,-6.4887 -60.15171,-19.77864 -78.57519,-48.26604 -13.48903,-20.8575 -23.11215,-67.92769 -19.60216,-95.88139 2.40696,-19.16922 2.78409,-19.131 16.37992,1.65959 6.67284,10.20401 15.26557,21.97511 19.09497,26.158 10.38283,11.34133 25.38565,21.755 35.63427,24.73434 21.6954,6.30703 61.3519,5.81872 88.49471,-1.08972 7.1076,-1.80898 32.43631,-9.35516 56.28602,-16.7692 23.84971,-7.41404 54.24559,-16.83933 67.54639,-20.94506 13.3008,-4.10574 51.95234,-16.34136 85.89232,-27.19026 33.93997,-10.84892 75.96884,-23.96735 93.39748,-29.15208 17.42863,-5.18472 56.83069,-17.5582 87.56013,-27.49663 30.72943,-9.93842 76.13562,-24.21357 100.90261,-31.72256 110.91606,-33.62807 132.47696,-43.36532 166.76366,-75.313 9.6911,-9.02999 19.5489,-21.11361 43.9112,-53.82611 5.1799,-6.95536 11.9323,-20.21541 12.1699,-23.89875 0.6317,-9.79598 2.962,13.68931 3.0146,30.38214 0.2008,63.69187 -21.714,111.21714 -68.5818,148.72977 -19.5201,15.62376 -46.0629,32.38829 -62.7222,39.6156 -15.58091,6.7595 -61.2738,21.78934 -119.57252,39.33123 -15.59405,4.6922 -35.85796,11.04969 -45.03093,14.12775 -9.17297,3.07808 -27.18534,8.70063 -40.02748,12.49455 -12.84216,3.79392 -32.73082,9.8118 -44.19703,13.373 -11.4662,3.56121 -30.97961,9.59513 -43.36311,13.40858 -12.3835,3.81354 -32.27217,10.18918 -44.19702,14.16806 -23.83957,7.95439 -55.9682,17.89177 -67.3205,20.82213 -4.00358,1.0334 -22.76647,7.00481 -41.6953,13.26975 -31.14029,10.30661 -86.64236,27.49261 -110.36323,34.17351 -10.82769,3.0496 -52.71921,7.5689 -68.31855,7.3703 -5.96243,-0.076 -16.52895,-1.0963 -23.48116,-2.2675 z M 365.784,872.91357 c -18.47335,-2.88425 -28.85581,-6.36802 -41.93836,-14.07221 -28.13091,-16.56602 -45.99567,-41.10588 -52.85044,-72.59789 -2.14102,-9.83623 -2.91961,-21.23164 -2.96274,-43.36312 -0.067,-34.35729 1.52069,-42.58067 12.51489,-64.8217 9.70147,-19.62586 20.74109,-33.62219 40.82004,-51.75281 20.2599,-18.294 18.70445,-18.11394 35.07816,-4.0606 4.62916,3.97314 10.25803,8.5231 12.50859,10.11102 l 4.09196,2.88714 -5.83734,5.15469 c -7.69927,6.79886 -26.22734,17.75183 -32.52233,19.22575 -7.19703,1.68511 -20.1411,11.58034 -25.67937,19.63087 -7.04094,10.23477 -10.1786,21.17985 -10.1786,35.50586 0,10.2362 0.81335,14.24875 4.29852,21.20631 12.901,25.75471 33.20599,41.86919 58.25316,46.23097 7.17866,1.25011 20.82254,1.65046 37.34008,1.09566 30.31695,-1.0183 25.21529,0.31138 126.09678,-32.86536 66.53419,-21.88098 85.8563,-27.98984 126.75371,-40.07429 12.84216,-3.79462 30.85453,-9.40032 40.0275,-12.45711 9.17296,-3.05678 30.18739,-9.45297 46.69873,-14.21375 16.51134,-4.76081 47.28247,-14.16705 68.3803,-20.90279 67.3752,-21.51036 153.24683,-47.90188 170.95071,-52.53947 20.96554,-5.49199 55.61475,-22.87534 77.16415,-38.71292 12.6493,-9.29657 31.0609,-28.57604 37.2407,-38.99616 5.8503,-9.8647 13.7983,-34.42885 15.0302,-46.45244 2.1982,-21.45612 -5.8631,-46.71999 -20.8686,-65.40148 -6.993,-8.70613 -32.8531,-28.68502 -51.1728,-39.53494 -18.6757,-11.06072 -58.40919,-24.5427 -92.11815,-31.25659 -9.79635,-1.95116 -19.83664,-4.57438 -22.31184,-5.82936 -5.9814,-3.03276 -12.72062,-12.08745 -14.08909,-18.92973 l -1.10501,-5.5251 19.0202,0.96597 c 71.00379,3.60603 130.19289,27.95737 173.66339,71.44792 31.0003,31.01456 39.7496,48.50117 44.1226,88.18404 3.0307,27.50299 2.0363,54.21965 -2.6942,72.38443 -4.4864,17.22763 -17.892,46.48322 -27.4142,59.82745 -24.9763,35.00104 -78.5663,71.03327 -129.46391,87.04733 -10.54886,3.31905 -30.43758,9.701 -44.19699,14.18212 -13.75949,4.48115 -33.27286,10.50539 -43.36312,13.3872 -10.09027,2.88183 -37.85934,11.53164 -61.70905,19.22178 -23.84971,7.69015 -61.37549,19.70644 -83.39061,26.70284 -50.85802,16.16269 -124.06101,39.67323 -165.94729,53.29716 -30.78794,10.01407 -90.97078,28.62209 -127.58762,39.44899 -31.88088,9.42657 -61.42461,11.77772 -90.65271,7.21432 z m 62.55335,-153.64204 c -1.53865,-25.14732 -1.21583,-97.43331 0.5014,-112.27296 1.17677,-10.16915 2.19229,-13.08606 5.51616,-15.84422 2.24063,-1.85929 9.60394,-7.88362 16.3629,-13.3874 6.75897,-5.50378 17.7598,-14.73097 24.44628,-20.50491 l 12.15724,-10.49804 -0.43201,86.36808 -0.432,86.36806 -20.58637,5.42663 c -11.32249,2.98463 -23.98902,6.93178 -28.14784,8.77142 -4.15883,1.83966 -7.72731,3.34482 -7.92995,3.34482 -0.20266,0 -0.85776,-7.99716 -1.45581,-17.77148 z m 213.22649,-104.5822 c -11.05818,-5.09861 -17.51203,-17.00948 -17.51203,-32.31928 0,-8.27011 0.72052,-10.55455 4.9456,-15.6803 7.25851,-8.80583 13.54331,-11.12498 31.5475,-11.64133 l 15.64543,-0.44871 4.78527,5.35565 c 4.69496,5.25457 4.78526,5.72663 4.78526,25.01589 v 19.66027 l -5.92916,5.74755 c -5.66871,5.49509 -6.52952,5.76666 -19.59679,6.18238 -8.96139,0.2851 -15.39051,-0.35955 -18.67108,-1.87212 z m 88.21008,-0.0239 c -11.04893,-5.00857 -13.40821,-9.6096 -14.63175,-28.53476 -1.77111,-27.3947 1.5508,-30.87923 29.43817,-30.87923 h 17.44343 l 7.73338,8.26762 c 7.69527,8.22686 7.73338,8.32589 7.73338,20.09657 0,15.35895 -4.54094,23.83313 -15.89551,29.6638 -6.06566,3.11477 -26.08401,3.98674 -31.8211,1.38607 z m 182.48515,-26.19662 c -0.31963,-0.95885 -0.0557,-7.51162 0.58681,-14.56172 0.64234,-7.05011 1.22128,-17.58586 1.28654,-23.41279 l 0.11865,-10.59445 17.09506,17.26569 c 9.40228,9.49612 16.71982,17.71195 16.26112,18.25741 -0.45861,0.54546 -5.71226,2.73249 -11.67465,4.86005 -5.9624,2.12758 -13.59743,5.23203 -16.96668,6.89876 -3.79109,1.87544 -6.34727,2.36597 -6.70694,1.28705 z M 377.76001,575.2775 c -20.71081,-4.35186 -27.47077,-16.82323 -21.58077,-39.81413 3.63306,-14.1812 9.30712,-21.80064 30.49422,-40.94932 9.93359,-8.97789 43.97922,-41.95173 75.65698,-73.27522 31.67773,-31.3235 68.82825,-67.84367 82.55669,-81.15593 13.72843,-13.31223 48.22678,-47.11443 76.66297,-75.11598 56.79559,-55.92745 62.08574,-59.95596 78.73281,-59.95596 15.79704,0 21.07028,3.80278 64.69902,46.65746 22.01513,21.62453 59.14769,57.6864 82.51681,80.13749 23.36912,22.4511 56.41468,54.7047 73.4346,71.67468 17.0199,16.97 46.99985,46.2401 66.62218,65.04468 54.80708,52.5231 60.54188,64.35996 40.76388,84.13794 -15.219,15.21909 -30.51263,22.1671 -38.3321,17.41465 -6.92815,-4.21066 -40.77504,-35.04614 -74.77241,-68.11967 -48.09571,-46.78878 -73.26653,-70.91165 -119.28815,-114.32181 -22.36703,-21.09782 -52.39371,-49.80503 -66.72598,-63.79381 -14.33226,-13.98878 -26.69579,-25.43413 -27.47455,-25.43413 -2.12899,0 -33.60134,29.30261 -104.79144,97.567 -18.17559,17.42864 -41.58767,39.56884 -52.02683,49.20046 -10.43914,9.63161 -32.41263,30.27079 -48.82998,45.86483 -43.69267,41.50158 -80.60708,75.3382 -87.68505,80.37426 -6.91312,4.91876 -18.59572,6.39183 -30.6329,3.86251 z m 263.62531,-53.26989 c -5.36448,-2.28413 -13.86699,-13.50002 -15.88014,-20.94789 -0.98998,-3.66253 -1.45228,-10.2774 -1.02735,-14.69973 0.62788,-6.53448 1.97714,-9.27418 7.20316,-14.6261 7.30739,-7.48344 14.01579,-9.85722 27.89465,-9.87056 10.7929,-0.01 17.51391,2.75922 22.70233,9.35525 3.0589,3.88878 3.4819,6.68446 3.4746,22.96574 -0.008,17.05628 -0.32804,18.93788 -4.00902,23.5414 -3.90994,4.88989 -4.3734,5.01222 -20.42241,5.3908 -9.03192,0.21305 -18.00304,-0.28596 -19.93582,-1.10891 z m 83.25862,-1.69717 c -7.8381,-4.77923 -8.86246,-8.03081 -8.86246,-28.13209 v -18.26152 l 6.67606,-6.03141 c 6.40897,-5.79012 7.17192,-6.0314 19.07126,-6.0314 14.91601,0 19.8787,1.68206 27.87174,9.4468 7.39059,7.17954 10.62513,17.31561 8.99486,28.18714 -1.53474,10.23428 -12.11425,21.34495 -21.8566,22.95385 -13.04437,2.15423 -26.32144,1.26701 -31.89486,-2.13137 z M 338.33826,383.67518 c -20.20437,-0.98559 -21.544,-1.26879 -24.65356,-5.21177 -4.05512,-5.14195 -3.20783,-14.0568 1.81341,-19.08014 3.2556,-3.25693 6.00803,-3.49616 53.00641,-4.60696 56.58384,-1.33733 60.78587,-0.82371 64.96536,7.94074 3.35057,7.02621 1.7285,13.00015 -4.86202,17.90651 -4.06908,3.02927 -7.43077,3.36957 -36.69187,3.71432 -17.71681,0.20872 -41.82679,-0.0896 -53.57773,-0.6627 z m 128.366,-38.78904 c -3.74541,-2.17716 -7.76583,-11.33238 -7.76583,-17.68418 0,-6.48562 6.73465,-15.64901 14.40805,-19.60403 3.54177,-1.8255 7.02288,-4.23451 7.7358,-5.35333 0.71291,-1.11882 4.09022,-2.62729 7.50515,-3.35215 10.41849,-2.21145 -18.49645,-3.72569 -91.74595,-4.80464 -64.63761,-0.95208 -66.40044,-1.06604 -71.71592,-4.63568 -7.82817,-5.25704 -8.46411,-14.1367 -1.51044,-21.09038 l 4.97737,-4.97737 h 92.4834 c 50.86585,0 94.88716,0.48076 97.82511,1.06835 8.34502,1.669 16.75678,10.58191 16.75678,17.75506 0,3.25652 -0.45348,7.10271 -1.00775,8.54709 -1.3966,3.6395 -60.13853,56.03196 -62.75232,55.96939 -1.16519,-0.0279 -3.50222,-0.85506 -5.19345,-1.83813 z m -218.32711,-4.91599 c -4.14044,-2.41159 -3.67084,-9.30604 0.8339,-12.24269 5.56323,-3.62665 62.65173,-5.80704 64.76225,-2.47349 2.14806,3.39288 1.86459,12.18352 -0.46809,14.51621 -2.54288,2.54287 -60.79843,2.72175 -65.12806,0.19997 z M 244.852,287.34023 c -5.8438,-5.84381 -5.69772,-12.07871 0.42038,-17.94022 9.88606,-9.47144 26.45896,-6.42611 32.90913,6.04719 5.10612,9.8741 -2.46835,16.28999 -19.23158,16.28999 -8.25776,0 -10.3551,-0.65413 -14.09793,-4.39696 z"
       id="path475"
       sodipodi:nodetypes="sssssssssssscsssssssssssssssssssssssssssssssssssssssssssssssssssssscssssssssssssssssssssscsssssssssssssssssscccsssssssscsscsssssscsssssssscsssssssssssssssssssssssssssssssscscssssscsssssssssssssssssssssscssssssssssssssss" />
  </g>
</svg>
